<svg width="48" height="48" viewBox="0 0 48 48" fill="none" xmlns="http://www.w3.org/2000/svg">
<rect width="48" height="48" rx="12" fill="url(#paint0_linear_520_2034)"/>
<path d="M23.9874 40C21.1004 40 18.4317 39.283 15.9811 37.8491C13.5306 36.4151 11.5877 34.4696 10.1526 32.0126C8.71754 29.5639 8 26.8931 8 24C8 21.1153 8.71754 18.4486 10.1526 16C11.5877 13.543 13.5306 11.5975 15.9811 10.1635C18.4317 8.72118 21.1004 8 23.9874 8C26.8744 8 29.5431 8.72118 31.9937 10.1635C34.4527 11.5975 36.3997 13.543 37.8348 16C39.2783 18.4486 40 21.1153 40 24C40 26.8931 39.2783 29.5639 37.8348 32.0126C36.3997 34.4612 34.4527 36.4025 31.9937 37.8365C29.5431 39.2788 26.8744 40 23.9874 40ZM11.1975 24C11.1975 25.3753 11.2059 26.5199 11.2227 27.434C11.2478 28.3396 11.3066 29.2411 11.3989 30.1384C11.4576 30.6415 11.6087 30.9895 11.8521 31.1824C12.0955 31.3753 12.4815 31.4969 13.0102 31.5472C15.9895 31.8658 19.6486 32.0252 23.9874 32.0252C28.3179 32.0252 31.9601 31.8658 34.9142 31.5472C35.4597 31.4969 35.8584 31.3753 36.1102 31.1824C36.3619 30.9895 36.5172 30.6415 36.5759 30.1384C36.6431 29.2411 36.685 28.3396 36.7018 27.434C36.7186 26.5199 36.727 25.3753 36.727 24C36.727 22.6247 36.7186 21.4843 36.7018 20.5786C36.685 19.673 36.6431 18.7673 36.5759 17.8616C36.5172 17.3585 36.3619 17.0105 36.1102 16.8176C35.8584 16.6247 35.4597 16.5031 34.9142 16.4528C31.9601 16.1342 28.3179 15.9748 23.9874 15.9748C19.6486 15.9748 15.9895 16.1342 13.0102 16.4528C12.4815 16.5031 12.0955 16.6247 11.8521 16.8176C11.6087 17.0105 11.4576 17.3585 11.3989 17.8616C11.3066 18.7673 11.2478 19.673 11.2227 20.5786C11.2059 21.4843 11.1975 22.6247 11.1975 24ZM17.5169 24C17.5169 22.8428 17.8023 21.7652 18.3729 20.7673C18.9436 19.7694 19.7241 18.9769 20.7144 18.3899C21.7047 17.8029 22.7957 17.5094 23.9874 17.5094C25.1791 17.5094 26.2701 17.8029 27.2604 18.3899C28.2507 18.9769 29.0312 19.7694 29.6019 20.7673C30.1726 21.7652 30.4579 22.8428 30.4579 24C30.4579 25.1656 30.1726 26.2474 29.6019 27.2453C29.0312 28.2348 28.2507 29.0231 27.2604 29.6101C26.2701 30.1971 25.1791 30.4906 23.9874 30.4906C22.7957 30.4906 21.7047 30.1971 20.7144 29.6101C19.7241 29.0231 18.9436 28.2348 18.3729 27.2453C17.8023 26.2474 17.5169 25.1656 17.5169 24Z" fill="white"/>
<defs>
<linearGradient id="paint0_linear_520_2034" x1="-19.2" y1="24" x2="67.2" y2="24" gradientUnits="userSpaceOnUse">
<stop stop-color="#185CFB"/>
<stop offset="1" stop-color="#8800F8"/>
</linearGradient>
</defs>
</svg>
