<svg width="59" height="32" viewBox="0 0 59 32" fill="none" xmlns="http://www.w3.org/2000/svg">
<g clip-path="url(#clip0_1508_35137)">
<path fill-rule="evenodd" clip-rule="evenodd" d="M12.982 0.899992C12.982 0.125167 13.4861 -0.199759 14.192 0.125167L15.1247 0.550071C15.7044 0.800014 15.9817 1.19992 15.9817 1.82478V14.5219C15.9817 15.1468 15.7044 15.5217 15.1247 15.7966L14.192 16.1965C13.4609 16.5215 12.982 16.1965 12.982 15.4217V0.899992ZM33.2994 5.92385C34.0557 5.14903 35.19 4.64914 36.3748 4.64914C39.2737 4.64914 41.7692 7.17357 41.7692 10.4728C41.7692 13.7221 39.2989 16.2965 36.4504 16.2965C35.1396 16.2965 33.8288 15.6966 33.123 14.8968V15.5217C33.123 15.8716 32.9213 16.0966 32.5432 16.0966H30.9047C30.5518 16.0966 30.3249 15.8966 30.3249 15.5217V0.800014C30.3249 0.450094 30.5266 0.225145 30.9047 0.225145H32.7197C33.0726 0.225145 33.2994 0.425099 33.2994 0.800014V5.92385ZM8.64626 5.42397C8.64626 5.07405 8.84792 4.8491 9.22604 4.8491H10.915C11.2679 4.8491 11.4947 5.04905 11.4947 5.42397V13.8221C11.4947 18.7959 9.27645 20.9455 5.24321 20.9455C3.70554 20.9455 1.91579 20.4706 0.403324 19.4958C0.0504155 19.2708 0 18.9459 0.176454 18.621L0.907479 17.1963C1.08393 16.8464 1.43684 16.7714 1.76454 16.9963C2.97451 17.7712 4.03324 18.0961 5.14238 18.1211C7.25983 18.1211 8.4698 17.0713 8.49501 14.7719C7.89003 15.4217 6.8313 16.0466 5.47008 16.0466C2.41994 16.0466 0 13.7721 0 10.4728C0 7.17357 2.57119 4.64914 5.54571 4.64914C6.75568 4.64914 7.99086 5.24901 8.64626 6.04883V5.42397ZM17.3429 10.4728C17.3429 7.09859 19.9897 4.64914 23.1407 4.64914C26.3421 4.64914 28.9385 7.09859 28.9385 10.4728C28.9385 13.8471 26.2917 16.2965 23.1407 16.2965C19.9393 16.2965 17.3429 13.8471 17.3429 10.4728ZM42.9792 10.4728C42.9792 7.09859 45.626 4.64914 48.777 4.64914C51.9784 4.64914 54.5748 7.09859 54.5748 10.4728C54.5748 13.8471 51.928 16.2965 48.777 16.2965C45.5756 16.2965 42.9792 13.8471 42.9792 10.4728ZM2.9241 10.4478C2.9241 12.2224 4.20969 13.4222 5.74737 13.4222C7.28504 13.4222 8.54543 12.2224 8.57063 10.4478C8.57063 8.67323 7.28504 7.4735 5.74737 7.4735C4.20969 7.4735 2.9241 8.64824 2.9241 10.4478ZM20.3174 10.4728C20.3174 12.1974 21.5778 13.4472 23.1407 13.4472C24.7036 13.4472 25.9892 12.1974 25.964 10.4728C25.964 8.74821 24.7036 7.4985 23.1407 7.4985C21.5778 7.4985 20.3174 8.74821 20.3174 10.4728ZM33.2238 10.4728C33.2238 12.2474 34.5094 13.4472 36.0219 13.4472C37.5343 13.4472 38.8199 12.2724 38.8199 10.4728C38.8199 8.69823 37.5343 7.4985 36.0219 7.4985C34.4842 7.4985 33.2238 8.69823 33.2238 10.4728ZM45.9537 10.4728C45.9537 12.1974 47.2141 13.4472 48.777 13.4472C50.3399 13.4472 51.6255 12.1974 51.6003 10.4728C51.6003 8.74821 50.3399 7.4985 48.777 7.4985C47.2141 7.4985 45.9537 8.74821 45.9537 10.4728ZM53.8634 20.3636C52.6535 20.3636 51.4183 20.8635 50.5612 21.9633C49.931 21.0385 48.8723 20.3636 47.5363 20.3636C46.2255 20.3636 45.2928 20.9385 44.6878 21.7133V21.1385C44.6878 20.7635 44.4609 20.5636 44.108 20.5636H42.4695C42.0914 20.5636 41.8897 20.7885 41.8897 21.1385V31.2112C41.8897 31.5861 42.1166 31.7861 42.4695 31.7861H44.2845C44.6626 31.7861 44.8643 31.5611 44.8643 31.2112V25.6874C44.8643 24.1128 45.6457 23.163 46.8809 23.163C48.0909 23.163 48.7463 23.9878 48.7463 25.5875V31.2112C48.7463 31.5861 48.9731 31.7861 49.326 31.7861H51.141C51.5191 31.7861 51.7208 31.5611 51.7208 31.2112V25.6874C51.7208 24.1128 52.5022 23.163 53.7374 23.163C54.9726 23.163 55.6028 23.9878 55.6028 25.5875V31.2112C55.6028 31.5861 55.8296 31.7861 56.1825 31.7861H57.9975C58.3756 31.7861 58.5773 31.5611 58.5773 31.2112V25.2375C58.5269 22.2632 56.7875 20.3636 53.8634 20.3636ZM25.4039 27.687C25.0762 27.687 24.8997 27.8369 24.7233 28.1119C24.2947 28.8617 23.5637 29.1616 22.6814 29.1616C21.1438 29.1616 19.959 27.8869 19.959 26.1873C19.959 24.4627 21.169 23.213 22.6814 23.213C23.5385 23.213 24.1939 23.5629 24.6224 24.2128C24.7989 24.5127 25.0258 24.6377 25.3283 24.6377H27.2945C27.6978 24.6377 27.9247 24.3877 27.7986 23.9878C27.1432 21.8633 25.0258 20.3886 22.631 20.3886C19.5557 20.3886 17.0097 22.8381 17.0097 26.2123C17.0097 29.5865 19.4549 32.036 22.631 32.036C25.0762 32.036 27.2188 30.5863 27.849 28.3618C27.9499 27.9619 27.6978 27.737 27.3197 27.737H25.4039V27.687ZM12.8 30.0614C12.8 28.9117 13.7327 28.1369 14.741 28.1369C15.7493 28.1369 16.682 28.9117 16.682 30.0864C16.682 31.2362 15.7493 32.011 14.741 32.011C13.7327 32.011 12.8 31.2362 12.8 30.0614ZM34.6803 20.3636C31.5293 20.3636 28.8825 22.8131 28.8825 26.1873C28.8825 29.5616 31.4789 32.011 34.6803 32.011C37.8313 32.011 40.4781 29.5616 40.4781 26.1873C40.4781 22.8131 37.8817 20.3636 34.6803 20.3636ZM34.6804 29.1616C33.1175 29.1616 31.8571 27.9119 31.8571 26.1873C31.8571 24.4627 33.1175 23.213 34.6804 23.213C36.2433 23.213 37.5036 24.4627 37.5036 26.1873C37.5289 27.9119 36.2685 29.1616 34.6804 29.1616Z" fill="url(#paint0_linear_1508_35137)"/>
</g>
<defs>
<linearGradient id="paint0_linear_1508_35137" x1="10.0735" y1="16.0187" x2="59.8393" y2="21.2241" gradientUnits="userSpaceOnUse">
<stop stop-color="#0420FC"/>
<stop offset="1" stop-color="#03B4FC"/>
</linearGradient>
<clipPath id="clip0_1508_35137">
<rect width="58.7636" height="32" fill="white"/>
</clipPath>
</defs>
</svg>
