<svg width="97" height="32" viewBox="0 0 97 32" fill="none" xmlns="http://www.w3.org/2000/svg">
<path d="M16.61 7.15146C16.7303 7.13987 16.8516 7.15514 16.9653 7.19618C17.0789 7.23722 17.1822 7.30301 17.2676 7.38884C17.353 7.47467 17.4185 7.57841 17.4593 7.69264C17.5002 7.80688 17.5154 7.92877 17.5038 8.0496V20.9978C17.5038 28.6943 14.1148 32 7.96983 32C5.35993 31.9532 2.8148 31.1756 0.620703 29.7547C0.507143 29.6917 0.407713 29.6059 0.328622 29.5027C0.249531 29.3994 0.192478 29.2808 0.161024 29.1544C0.129571 29.028 0.124393 28.8964 0.145814 28.7679C0.167235 28.6394 0.214795 28.5167 0.285524 28.4074L1.37796 26.1995C1.43108 26.0808 1.51089 25.976 1.61111 25.8934C1.71133 25.8109 1.82923 25.7529 1.95555 25.7238C2.08187 25.6948 2.21317 25.6957 2.33912 25.7262C2.46507 25.7568 2.58225 25.8164 2.68144 25.9001C4.19736 26.9802 6.00025 27.5797 7.8581 27.6216C11.0609 27.6216 12.923 26.0124 12.9603 22.4573C12.367 23.0884 11.6509 23.5901 10.8565 23.9313C10.062 24.2725 9.20621 24.4459 8.34225 24.4407C3.68698 24.4407 0 20.9229 0 15.8335C0 10.744 3.91043 6.86455 8.45398 6.86455C9.34981 6.87243 10.234 7.06978 11.0489 7.44374C11.8638 7.8177 12.5912 8.35991 13.1837 9.03506V8.0496C13.1722 7.92877 13.1874 7.80688 13.2282 7.69264C13.2691 7.57841 13.3346 7.47467 13.42 7.38884C13.5054 7.30301 13.6086 7.23722 13.7223 7.19618C13.836 7.15514 13.9573 7.13987 14.0775 7.15146H16.61ZM13.0348 15.7961C13.0348 13.0268 11.0982 11.1931 8.75192 11.1931C6.40566 11.1931 4.40699 13.0268 4.40699 15.7961C4.37491 16.389 4.46355 16.9823 4.66749 17.5397C4.87144 18.0971 5.18639 18.6068 5.5931 19.0376C5.9998 19.4685 6.48971 19.8115 7.03284 20.0455C7.57598 20.2796 8.16093 20.3999 8.75192 20.399C11.0982 20.399 13.0348 18.5279 13.0348 15.7961ZM19.7384 19.8751C19.5522 19.2514 19.8873 18.9021 20.5204 18.9021H23.4253C23.6297 18.9 23.8301 18.9579 24.0021 19.0687C24.1742 19.1795 24.3102 19.3384 24.3936 19.5258C24.8405 20.2369 25.4737 20.7733 27.2613 20.7733C28.7137 20.7733 29.7441 20.3616 29.7441 19.5258C29.7441 16.3449 19.6515 19.3761 19.6515 12.1162C19.6515 8.93527 22.4074 6.8396 26.7647 6.8396C30.6752 6.8396 33.0587 8.78557 33.9152 11.742C34.1014 12.3657 33.7663 12.7524 33.1331 12.7524H30.1662C29.7193 12.7524 29.5455 12.6027 29.2351 12.1287C28.751 11.3802 28.0434 10.8812 26.293 10.8812C24.8778 10.8812 24.0585 11.5049 24.0585 12.1287C24.0585 14.9353 34.2256 12.1287 34.2256 19.1641C34.2256 22.5695 31.1717 24.7775 27.0378 24.7775C22.606 24.8149 20.5577 22.4573 19.7384 19.8751ZM51.5184 14.1869V23.6174C51.5294 23.7359 51.5147 23.8555 51.4753 23.9678C51.4359 24.0801 51.3727 24.1825 51.2901 24.2678C51.2074 24.3532 51.1074 24.4196 50.9968 24.4623C50.8862 24.5051 50.7676 24.5232 50.6494 24.5155H47.8935C47.7732 24.5271 47.6519 24.5118 47.5382 24.4708C47.4245 24.4297 47.3213 24.364 47.2359 24.2781C47.1505 24.1923 47.085 24.0886 47.0442 23.9743C47.0033 23.8601 46.9881 23.7382 46.9996 23.6174V14.9353C46.9996 12.4405 46.0686 11.1931 44.0575 11.1931C42.0464 11.1931 40.8174 12.6526 40.8174 15.085V23.6174C40.829 23.7382 40.8138 23.8601 40.7729 23.9743C40.7321 24.0886 40.6666 24.1923 40.5812 24.2781C40.4958 24.364 40.3925 24.4297 40.2789 24.4708C40.1652 24.5118 40.0439 24.5271 39.9236 24.5155H37.1677C37.0475 24.5271 36.9262 24.5118 36.8125 24.4708C36.6988 24.4297 36.5955 24.364 36.5101 24.2781C36.4247 24.1923 36.3592 24.0886 36.3184 23.9743C36.2776 23.8601 36.2624 23.7382 36.2739 23.6174V0.901901C36.2624 0.781075 36.2776 0.65918 36.3184 0.544947C36.3592 0.430713 36.4247 0.326967 36.5101 0.241138C36.5955 0.155308 36.6988 0.0895189 36.8125 0.0484811C36.9262 0.00744322 37.0475 -0.00782791 37.1677 0.00376126H39.9236C40.0439 -0.00782791 40.1652 0.00744322 40.2789 0.0484811C40.3925 0.0895189 40.4958 0.155308 40.5812 0.241138C40.6666 0.326967 40.7321 0.430713 40.7729 0.544947C40.8138 0.65918 40.829 0.781075 40.8174 0.901901V8.73568C41.4083 8.12968 42.116 7.65118 42.8973 7.32945C43.6785 7.00773 44.5168 6.84953 45.361 6.86455C49.2342 6.86455 51.5184 9.58392 51.5184 14.1869ZM53.5294 15.8335C53.5294 13.4812 54.4594 11.2253 56.1146 9.56206C57.7699 7.89877 60.0149 6.96435 62.3558 6.96435C64.6968 6.96435 66.9418 7.89877 68.5971 9.56206C70.2523 11.2253 71.1822 13.4812 71.1822 15.8335C71.1822 18.1857 70.2523 20.4416 68.5971 22.1049C66.9418 23.7682 64.6968 24.7026 62.3558 24.7026C60.0149 24.7026 57.7699 23.7682 56.1146 22.1049C54.4594 20.4416 53.5294 18.1857 53.5294 15.8335ZM67.9049 15.6838C67.9049 15.5184 67.8395 15.3597 67.7231 15.2428C67.6067 15.1258 67.4489 15.0601 67.2842 15.0601C67.1196 15.0601 66.9617 15.1258 66.8453 15.2428C66.7289 15.3597 66.6635 15.5184 66.6635 15.6838C66.6768 16.8396 66.2334 17.9535 65.4305 18.7813C64.6277 19.6091 63.5309 20.0832 62.3807 20.0996C61.808 20.1024 61.2406 19.9893 60.7124 19.7669C60.1842 19.5445 59.7059 19.2175 59.3062 18.8054C58.9065 18.3933 58.5935 17.9045 58.3859 17.3682C58.1783 16.8318 58.0803 16.259 58.0978 15.6838C58.0978 15.5184 58.0324 15.3597 57.916 15.2428C57.7996 15.1258 57.6417 15.0601 57.4771 15.0601C57.3125 15.0601 57.1546 15.1258 57.0382 15.2428C56.9218 15.3597 56.8564 15.5184 56.8564 15.6838C56.8564 17.1626 57.4411 18.5809 58.4817 19.6266C59.5224 20.6723 60.9338 21.2597 62.4055 21.2597C63.8772 21.2597 65.2886 20.6723 66.3293 19.6266C67.37 18.5809 67.9546 17.1626 67.9546 15.6838H67.9049ZM95.9855 7.15146C96.1128 7.13193 96.243 7.14764 96.362 7.19692C96.481 7.2462 96.5844 7.32717 96.661 7.43111C96.7376 7.53505 96.7846 7.65803 96.7968 7.78679C96.809 7.91556 96.7861 8.04524 96.7304 8.16187L91.6655 23.7546C91.6068 23.9834 91.4705 24.1846 91.2802 24.3235C91.0899 24.4623 90.8574 24.5302 90.6227 24.5155H87.9412C87.7126 24.5305 87.4861 24.4635 87.302 24.3264C87.1179 24.1894 86.9881 23.9912 86.9357 23.767L84.0308 13.401L81.2252 23.767C81.1728 23.9912 81.043 24.1894 80.8589 24.3264C80.6748 24.4635 80.4483 24.5305 80.2197 24.5155H77.5382C77.3052 24.5309 77.074 24.4647 76.8839 24.3283C76.6938 24.1919 76.5566 23.9936 76.4955 23.767L71.356 8.17434C71.3004 8.05771 71.2774 7.92804 71.2896 7.79927C71.3019 7.6705 71.3488 7.54753 71.4254 7.44358C71.5021 7.33964 71.6054 7.25867 71.7245 7.2094C71.8435 7.16012 71.9736 7.1444 72.1009 7.16393H75.4527C75.6834 7.14591 75.9123 7.21728 76.0923 7.3634C76.2724 7.50953 76.39 7.71934 76.421 7.94981L78.9038 17.9291L81.7342 7.94981C81.7768 7.72478 81.8975 7.52225 82.0748 7.37833C82.2522 7.2344 82.4746 7.15842 82.7025 7.16393H85.657C85.8868 7.15036 86.1134 7.22337 86.2924 7.3687C86.4715 7.51402 86.5902 7.72123 86.6253 7.94981L89.4185 17.979L91.9013 7.94981C91.9323 7.71934 92.0499 7.50953 92.23 7.3634C92.41 7.21728 92.6389 7.14591 92.8696 7.16393L95.9855 7.15146Z" fill="#FF6700"/>
</svg>
