<svg width="118" height="24" viewBox="0 0 118 24" fill="none" xmlns="http://www.w3.org/2000/svg">
<path d="M12.0185 0C5.39528 0 0 5.38 0 11.9875C0 18.595 5.39277 24 12.016 24C18.6391 24 24.057 18.62 24.057 11.9875C24.057 5.38 18.6391 0 12.016 0H12.0185ZM20.2304 17.6575C17.6067 17.9475 14.7625 18.0175 12.0185 18.0175C9.27447 18.0175 6.43274 17.945 3.78146 17.6575C3.03469 17.585 2.64877 17.395 2.55355 16.6C2.4082 15.0875 2.4082 13.5475 2.4082 11.9875C2.4082 10.4275 2.4082 8.9125 2.55355 7.4C2.65128 6.6075 3.03469 6.415 3.78146 6.3425C6.43023 6.0525 9.27196 5.9825 12.0185 5.9825C14.765 5.9825 17.6042 6.055 20.2304 6.3425C20.9997 6.415 21.3857 6.605 21.4834 7.4C21.6037 8.9125 21.6037 10.4525 21.6037 11.9875C21.6037 13.5225 21.6037 15.0875 21.4834 16.6C21.3882 17.3925 21.0022 17.585 20.2304 17.6575Z" fill="url(#paint0_linear_4543_2150)"/>
<path d="M7.15444 11.9875C7.15444 9.345 9.27446 7.135 12.0185 7.135C14.7625 7.135 16.8825 9.345 16.8825 11.9875C16.8825 14.63 14.765 16.865 12.0185 16.865C9.27196 16.865 7.15444 14.655 7.15444 11.9875Z" fill="url(#paint1_linear_4543_2150)"/>
<path d="M77.5963 15.005C75.98 15.005 74.6668 13.695 74.6668 11.9075C74.6668 10.12 75.98 8.81 77.5963 8.81C79.2126 8.81 80.5257 10.12 80.5257 11.9075C80.5257 13.695 79.2126 15.005 77.5963 15.005ZM64.4151 15.005C62.8489 15.005 61.5357 13.77 61.5357 11.9075C61.5357 10.045 62.8489 8.81 64.4151 8.81C65.9813 8.81 67.2944 10.07 67.2944 11.9075C67.2944 13.745 65.9813 15.005 64.4151 15.005ZM51.1086 15.005C49.4922 15.005 48.1791 13.695 48.1791 11.9075C48.1791 10.12 49.4922 8.81 51.1086 8.81C52.7249 8.81 54.038 10.12 54.038 11.9075C54.038 13.695 52.7249 15.005 51.1086 15.005ZM33.1285 14.98C31.5372 14.98 30.199 13.72 30.199 11.8825C30.199 10.045 31.5372 8.785 33.1285 8.785C34.7197 8.785 36.0328 10.02 36.0328 11.8825C36.0328 13.745 34.7197 14.98 33.1285 14.98ZM77.5963 5.86C74.3386 5.86 71.6121 8.405 71.6121 11.905C71.6121 15.405 74.2885 17.95 77.5963 17.95C80.9041 17.95 83.5805 15.405 83.5805 11.905C83.5805 8.405 80.9041 5.86 77.5963 5.86ZM51.1086 5.86C47.8508 5.86 45.1244 8.405 45.1244 11.905C45.1244 15.405 47.8007 17.95 51.1086 17.95C54.4164 17.95 57.0927 15.405 57.0927 11.905C57.0927 8.405 54.4164 5.86 51.1086 5.86ZM36.7395 6.0625C36.3611 6.0625 36.1331 6.29 36.1331 6.6675V7.3225C35.4515 6.49 34.1885 5.8625 32.9255 5.8625C29.8457 5.8625 27.1919 8.4825 27.1919 11.9075C27.1919 15.3325 29.6928 17.7025 32.8478 17.7025C34.2612 17.7025 35.3487 17.0475 35.9777 16.3675C35.9527 18.76 34.6897 19.845 32.517 19.845C31.3543 19.845 30.2692 19.4925 29.0062 18.685C28.6779 18.4575 28.2995 18.5325 28.1216 18.8875L27.3648 20.3725C27.1869 20.725 27.237 21.0525 27.5929 21.28C29.1591 22.2875 31.0034 22.79 32.5922 22.79C36.7596 22.79 39.0575 20.5475 39.0575 15.3825V6.6675C39.0575 6.29 38.8295 6.0625 38.4511 6.0625H36.7345H36.7395ZM64.7684 5.86C63.5555 5.86 62.3702 6.3875 61.5859 7.195V1.855C61.5859 1.4775 61.3578 1.25 60.9794 1.25H59.11C58.7316 1.25 58.5036 1.4775 58.5036 1.855V17.1475C58.5036 17.525 58.7316 17.7525 59.11 17.7525H60.8015C61.1799 17.7525 61.408 17.525 61.408 17.1475V16.4925C62.1397 17.325 63.5029 17.9525 64.8436 17.9525C67.7981 17.9525 70.3491 15.2825 70.3491 11.9075C70.3491 8.5325 67.773 5.8625 64.7684 5.8625V5.86ZM41.8667 1.15C41.1349 0.822499 40.6287 1.15 40.6287 1.955V17.045C40.6287 17.85 41.1324 18.18 41.8667 17.85L42.8264 17.4225C43.4329 17.145 43.711 16.7425 43.711 16.0875V2.9125C43.711 2.2575 43.4329 1.855 42.8264 1.5775L41.8667 1.15Z" fill="url(#paint2_linear_4543_2150)"/>
<path d="M94.1297 16.654C93.2935 16.654 92.5378 16.4615 91.8625 16.0765C91.1871 15.6851 90.6533 15.1397 90.2609 14.4402C89.8686 13.7408 89.6724 12.9387 89.6724 12.034C89.6724 11.1485 89.8686 10.356 90.2609 9.65662C90.6597 8.95079 91.2 8.40217 91.8817 8.01075C92.5635 7.61292 93.3193 7.414 94.149 7.414C94.76 7.414 95.3067 7.52308 95.7891 7.74125C96.2715 7.95942 96.6574 8.261 96.9469 8.646V7.876C96.9469 7.77975 96.9726 7.70596 97.0241 7.65462C97.0819 7.59687 97.1591 7.568 97.2556 7.568H98.3362C98.4326 7.568 98.5066 7.59687 98.5581 7.65462C98.6159 7.70596 98.6449 7.77975 98.6449 7.876V16.192C98.6449 16.2882 98.6159 16.3653 98.5581 16.423C98.5066 16.4743 98.4326 16.5 98.3362 16.5H97.2556C97.1591 16.5 97.0819 16.4743 97.0241 16.423C96.9726 16.3653 96.9469 16.2882 96.9469 16.192V15.345C96.6639 15.7557 96.278 16.0765 95.7891 16.3075C95.3003 16.5385 94.7472 16.654 94.1297 16.654ZM91.409 12.034C91.409 12.6115 91.528 13.1312 91.766 13.5932C92.004 14.0488 92.3288 14.405 92.7404 14.6616C93.1585 14.9119 93.6216 15.037 94.1297 15.037C94.6571 15.037 95.1299 14.9247 95.5479 14.7001C95.9724 14.4691 96.3037 14.129 96.5417 13.6799C96.7861 13.2243 96.9083 12.6757 96.9083 12.034C96.9083 11.3859 96.7861 10.8373 96.5417 10.3881C96.3037 9.93896 95.9757 9.60208 95.5576 9.3775C95.1395 9.1465 94.6635 9.031 94.1297 9.031C93.6666 9.031 93.226 9.1465 92.8079 9.3775C92.3963 9.6085 92.0586 9.95179 91.7949 10.4074C91.5376 10.8565 91.409 11.3987 91.409 12.034Z" fill="black"/>
<path d="M104.473 16.654C103.669 16.654 102.932 16.4615 102.263 16.0765C101.601 15.6851 101.076 15.1397 100.691 14.4402C100.305 13.7408 100.112 12.9387 100.112 12.034C100.112 11.1485 100.308 10.356 100.7 9.65662C101.093 8.95079 101.623 8.40217 102.292 8.01075C102.961 7.61292 103.694 7.414 104.492 7.414C105.116 7.414 105.669 7.52308 106.151 7.74125C106.634 7.95942 107.02 8.261 107.309 8.646V4.19925C107.309 4.103 107.335 4.02921 107.386 3.97787C107.444 3.92012 107.521 3.89125 107.618 3.89125H108.737C108.833 3.89125 108.907 3.92012 108.959 3.97787C109.017 4.02921 109.046 4.103 109.046 4.19925V16.192C109.046 16.2882 109.017 16.3653 108.959 16.423C108.907 16.4743 108.833 16.5 108.737 16.5H107.637C107.541 16.5 107.463 16.4743 107.405 16.423C107.354 16.3653 107.328 16.2882 107.328 16.192V15.4027C107.052 15.7877 106.666 16.0925 106.171 16.3171C105.675 16.5417 105.109 16.654 104.473 16.654ZM101.848 12.034C101.848 12.6115 101.967 13.1312 102.205 13.5932C102.443 14.0488 102.768 14.405 103.18 14.6616C103.598 14.9119 104.061 15.037 104.569 15.037C105.096 15.037 105.569 14.9247 105.987 14.7001C106.412 14.4691 106.743 14.129 106.981 13.6799C107.225 13.2243 107.348 12.6757 107.348 12.034C107.348 11.3859 107.225 10.8373 106.981 10.3881C106.743 9.93896 106.415 9.60208 105.997 9.3775C105.579 9.1465 105.103 9.031 104.569 9.031C104.106 9.031 103.665 9.1465 103.247 9.3775C102.836 9.6085 102.498 9.95179 102.234 10.4074C101.977 10.8565 101.848 11.3987 101.848 12.034Z" fill="black"/>
<path d="M114.488 16.654C113.382 16.654 112.485 16.4102 111.796 15.9225C111.108 15.4348 110.661 14.7482 110.455 13.8627C110.436 13.7665 110.452 13.6895 110.504 13.6317C110.562 13.5676 110.642 13.5355 110.745 13.5355H111.864C112.031 13.5355 112.153 13.6189 112.231 13.7857C112.417 14.2413 112.684 14.5686 113.031 14.7675C113.379 14.96 113.877 15.0562 114.527 15.0562C115.08 15.0562 115.508 14.9696 115.81 14.7964C116.112 14.6167 116.263 14.3568 116.263 14.0167C116.263 13.7601 116.177 13.5515 116.003 13.3911C115.829 13.2307 115.575 13.1024 115.241 13.0061C114.906 12.9099 114.469 12.8232 113.929 12.7462C112.777 12.5858 111.925 12.3003 111.372 11.8896C110.825 11.479 110.552 10.8854 110.552 10.109C110.552 9.59567 110.697 9.13367 110.986 8.723C111.282 8.31233 111.69 7.9915 112.211 7.7605C112.739 7.5295 113.337 7.414 114.006 7.414C115.035 7.414 115.884 7.65783 116.553 8.1455C117.228 8.63317 117.659 9.3005 117.846 10.1475C117.865 10.2502 117.849 10.3304 117.797 10.3881C117.746 10.4459 117.666 10.4747 117.556 10.4747H116.476C116.392 10.4747 116.321 10.4555 116.263 10.417C116.212 10.3785 116.167 10.3143 116.128 10.2245C115.929 9.78175 115.662 9.47054 115.328 9.29087C114.993 9.10479 114.527 9.01175 113.929 9.01175C113.382 9.01175 112.967 9.10158 112.684 9.28125C112.407 9.4545 112.269 9.71117 112.269 10.0512C112.269 10.3657 112.427 10.5967 112.742 10.7442C113.064 10.8918 113.517 11.0137 114.102 11.11C114.971 11.2576 115.672 11.4212 116.205 11.6009C116.746 11.7805 117.18 12.0597 117.508 12.4382C117.836 12.8104 118 13.3173 118 13.959C118 14.4787 117.855 14.944 117.566 15.3546C117.276 15.7653 116.865 16.0861 116.331 16.3171C115.797 16.5417 115.183 16.654 114.488 16.654Z" fill="black"/>
<defs>
<linearGradient id="paint0_linear_4543_2150" x1="195.565" y1="11.9075" x2="9.05352" y2="11.9075" gradientUnits="userSpaceOnUse">
<stop stop-color="#8800F8"/>
<stop offset="1" stop-color="#05A6FF"/>
</linearGradient>
<linearGradient id="paint1_linear_4543_2150" x1="679.446" y1="12" x2="31.4544" y2="12" gradientUnits="userSpaceOnUse">
<stop stop-color="#8800F8"/>
<stop offset="1" stop-color="#05A6FF"/>
</linearGradient>
<linearGradient id="paint2_linear_4543_2150" x1="195.565" y1="11.9075" x2="9.05352" y2="11.9075" gradientUnits="userSpaceOnUse">
<stop stop-color="#8800F8"/>
<stop offset="1" stop-color="#05A6FF"/>
</linearGradient>
</defs>
</svg>
