<svg width="40" height="40" viewBox="0 0 40 40" fill="none" xmlns="http://www.w3.org/2000/svg">
<rect width="40" height="40" fill="none"/>
<path d="M15.3311 18.575C15.5391 18.1604 15.6592 17.688 15.6592 17.1866C15.6777 15.4848 14.3838 14.0916 12.7617 14.0386L9.12478 14L9 25.8256L13.2654 25.869C15.3404 25.8593 17.0364 24.1142 17.0595 21.9448C17.0733 20.566 16.4171 19.3126 15.3265 18.575H15.3311Z" fill="#01B7EF"/>
<path d="M18.871 14.1109L18.7509 25.9365L22.2122 25.975L22.3324 14.1494L18.871 14.1109Z" fill="#01B7EF"/>
<path d="M26.399 19.9586C26.4129 18.5798 26.5608 16.9697 28.1505 15.4511L28.1551 15.4463C29.1857 14.4532 30.572 14.2796 32 14.2555L31.9631 17.982C31.9291 17.9816 31.8909 17.9807 31.8495 17.9797C31.4735 17.9707 30.8259 17.9553 30.572 18.1942C30.2855 18.4593 29.9851 18.9607 29.9713 20.0068V20.1273C29.9574 21.5061 29.8096 23.1163 28.2198 24.6348C26.9536 25.8593 25.4147 26.0136 23.9452 25.9991L23.9821 22.2774C25.1513 22.2919 25.5488 22.1376 25.7891 21.9062L25.8029 21.8918C26.2882 21.429 26.3852 21.1252 26.399 20.0791V19.9586Z" fill="#01B7EF"/>
</svg>
