<svg width="40" height="40" viewBox="0 0 40 40" fill="none" xmlns="http://www.w3.org/2000/svg">
<rect width="40" height="40" fill="none"/>
<path d="M10.8207 14.1921C10.8207 14.543 11.047 14.7086 11.4353 14.7086L11.4387 14.7119C11.7933 14.7119 11.9723 14.5728 12.0095 14.3576H12.8808C12.8065 15.0265 12.2831 15.3775 11.4151 15.3775C10.4694 15.3775 10 14.894 10 14.1887C10 13.4834 10.5269 13 11.4522 13C11.7123 13 11.9453 13.0364 12.1513 13.1093C12.5499 13.255 12.82 13.543 12.8707 13.9867H12.0027C11.9555 13.7881 11.7731 13.6623 11.4522 13.6623C11.0571 13.6623 10.8207 13.8411 10.8207 14.1921Z" fill="#00DEBA"/>
<path d="M16.9538 13.0563L18.0886 14.3543V13.0563H18.8519V15.3146H18.1089L16.9471 13.9735V15.3146H16.1804V13.0563H16.9538Z" fill="#00DEBA"/>
<path fill-rule="evenodd" clip-rule="evenodd" d="M15.9778 19.8709V19.8841L15.9812 19.8808C15.9812 20.9503 15.0355 21.3377 13.303 21.3377H10.1587V16.3179H13.2253C15.0693 16.3179 15.8326 16.6887 15.8326 17.6622V17.6854C15.8326 18.3179 15.4577 18.6126 14.7383 18.745C15.6029 18.8742 15.9778 19.1755 15.9778 19.8709ZM14.0089 17.9338V17.9172L14.0055 17.9205C14.0055 17.6225 13.7724 17.543 13.1341 17.543H11.9115V18.3046H13.1578C13.7083 18.3046 14.0089 18.2285 14.0089 17.9338ZM11.9048 19.255V20.0662H13.0294C13.3233 20.0662 13.5428 20.053 13.6914 20.0265C13.9987 19.9768 14.0865 19.8642 14.0865 19.6689V19.6523C14.0865 19.3311 13.8738 19.255 13.0733 19.255H11.9048Z" fill="#00DEBA"/>
<path d="M16.454 23.3411H17.761V25.3444H16.454V26.8642H20.7803V25.3444H19.4632V23.3411H20.7803V21.8444H16.454V23.3411Z" fill="#00DEBA"/>
<path d="M23.1377 25.2881V21.8444H21.3038V26.8642H31V25.2881H23.1377Z" fill="#00DEBA"/>
<path fill-rule="evenodd" clip-rule="evenodd" d="M24.7081 20.1192H17.4537V21.3377H16.4743V16.3179H24.8398C26.1975 16.3179 26.8966 16.6987 26.8966 17.5927C26.8966 18.4868 26.2448 18.8775 24.8398 18.8775H17.4537V19.3179H24.8331C25.9172 19.3179 26.3697 19.7815 26.3697 20.5894V21.3444H25.3869V20.7781C25.3869 20.3344 25.2316 20.1192 24.7081 20.1192ZM24.9952 17.1921C25.674 17.1921 25.8902 17.3146 25.8902 17.6192V17.6258C25.8902 17.9404 25.593 18.0828 24.9952 18.0828H17.4503V17.1921H24.9952Z" fill="#00DEBA"/>
<path d="M11.5536 22.553C11.5536 22.8543 11.7089 23.202 13.3165 23.5629L13.3233 23.5662C15.2652 24.0033 16.0994 24.4238 16.0994 25.5066C16.0994 26.5894 15.0727 27 13.6813 27C12.9641 27 12.3812 26.8551 11.8929 26.7338C11.1371 26.5459 10.608 26.4144 10.1587 26.9636V24.1622C10.949 25.7417 12.1784 26.7947 13.4178 26.7947C14.0832 26.7947 14.5323 26.5927 14.5323 26.096C14.5323 25.5993 14.1507 25.3411 12.5093 24.9735C10.5944 24.543 10.0405 23.9371 10.0405 23.1126C10.0405 22.1887 11.0537 21.7715 12.4013 21.7715C12.9123 21.7715 13.4529 21.8634 13.9563 21.949C14.7804 22.0891 15.5047 22.2122 15.836 21.8874V24.1954C14.9849 22.702 13.9683 21.9404 12.5566 21.9404C11.9419 21.9404 11.5536 22.1358 11.5536 22.553Z" fill="#00DEBA"/>
<path fill-rule="evenodd" clip-rule="evenodd" d="M28.3961 20.4172H29.102C29.1222 20.6887 29.1391 20.9238 29.1492 21.096C29.156 21.1755 29.1729 21.3411 29.1729 21.3411H30.615C30.615 21.3411 30.5508 20.755 30.5272 20.5596C30.4056 19.4967 30.0409 16.3212 30.0409 16.3212H27.4775L27.4336 16.6921C27.4336 16.6921 27.187 18.8775 27.106 19.606C27.0553 20.043 26.9067 21.3444 26.9067 21.3444H28.3319C28.3319 21.3444 28.3691 20.8642 28.4029 20.4205L28.3961 20.4172ZM28.9128 17.6589C28.9128 17.6589 28.9702 18.4801 29.031 19.3477H28.4772C28.5278 18.6523 28.5954 17.6589 28.5954 17.6589H28.9128Z" fill="#00DEBA"/>
<path d="M23.1275 14.606V13.0596H22.3001V15.3179H24.4548V14.6093H23.1242L23.1275 14.606Z" fill="#00DEBA"/>
<path fill-rule="evenodd" clip-rule="evenodd" d="M13.151 15.3212L13.6779 13.0596H15.2517L15.7785 15.3212H14.9883L14.8937 14.8543H14.0257L13.9312 15.3212H13.151ZM14.2689 13.6954L14.1406 14.3146H14.789L14.6607 13.6954H14.2689Z" fill="#00DEBA"/>
<path fill-rule="evenodd" clip-rule="evenodd" d="M19.784 13.0596L19.2572 15.3212H20.0373L20.1319 14.8543H20.9998L21.0944 15.3212H21.8847L21.3578 13.0596H19.784ZM20.2501 14.3146L20.3784 13.6954H20.7702L20.8985 14.3146H20.2501Z" fill="#00DEBA"/>
</svg>
