<svg width="40" height="40" viewBox="0 0 40 40" fill="none" xmlns="http://www.w3.org/2000/svg">
<rect width="40" height="40" fill="none"/>
<path d="M7.38731 21.0745L7.38629 21.0784H6.19624L6.05566 21.6371C6.02832 21.7401 5.91507 21.8273 5.80963 21.8273H4.54437C4.44284 21.8273 4.38426 21.7559 4.4116 21.6529L4.98174 19.359C5.00908 19.2599 5.12233 19.1569 5.22777 19.1569H6.50084C6.60237 19.1569 6.66095 19.2361 6.63361 19.3391L6.48912 19.9136H7.67629L8.01994 18.5547C8.09805 18.2496 7.9067 18 7.59428 18H4.55609C4.32178 18 4.09137 18.1902 4.0367 18.412L3.01746 22.4414C2.93936 22.7583 3.13071 22.9881 3.44312 22.9881H6.48132C6.71562 22.9881 6.94212 22.7979 7.0007 22.5761L7.38629 21.0784H7.38731V21.0745Z" fill="#CB1417"/>
<path fill-rule="evenodd" clip-rule="evenodd" d="M11.519 22.5761C11.4643 22.7979 11.2339 22.9881 10.9996 22.9881H7.94574C7.63334 22.9881 7.4537 22.7583 7.5318 22.4414L8.54714 18.412C8.60181 18.1902 8.84002 18 9.07043 18H12.1086C12.421 18 12.6085 18.2496 12.5343 18.5547L11.515 22.58L11.519 22.5761ZM8.91421 21.649C8.88688 21.752 8.96107 21.8233 9.0587 21.8233H10.324C10.4294 21.8233 10.5388 21.7361 10.5622 21.6331L11.148 19.3312C11.1753 19.2282 11.1128 19.149 11.0152 19.149H9.7421C9.62885 19.149 9.52341 19.252 9.49607 19.351L8.9103 21.645L8.91421 21.649Z" fill="#CB1417"/>
<path d="M18.7942 18H16.8495L16.8338 18.0079C16.5956 18.0079 16.4004 18.0911 16.2481 18.2179C16.1426 18.0872 15.963 18.0079 15.7092 18.0079H13.2489L11.9954 22.996H13.1825L14.151 19.1609H15.2327C15.3343 19.1609 15.3928 19.2361 15.3655 19.3431L14.4439 22.9921H15.6389L16.5527 19.3629C16.58 19.2559 16.6933 19.1609 16.7987 19.1609H17.6813C17.7828 19.1609 17.8492 19.2361 17.8218 19.3431L16.9041 22.9921H18.0913L19.2121 18.5547C19.2941 18.2377 19.1066 18 18.7942 18Z" fill="#CB1417"/>
<path fill-rule="evenodd" clip-rule="evenodd" d="M23.3281 20.8605L22.9219 22.5087C22.8478 22.8138 22.59 22.9881 22.2425 22.9881H18.7317L19.9775 18H23.3164C23.7811 18 23.9803 18.2694 23.867 18.7013L23.6288 19.6165C23.5741 19.8106 23.4609 19.9532 23.3008 20.0404L23.043 20.183C23.3164 20.3257 23.3945 20.5753 23.3281 20.8566V20.8605ZM21.684 21.8233C21.7895 21.8233 21.8988 21.7401 21.9222 21.6331L22.0941 20.8922C22.1214 20.7773 22.055 20.71 21.9261 20.7773L20.3719 21.6054C20.2587 21.6648 20.2704 21.8233 20.4109 21.8233H21.684ZM21.1334 19.1529C21.028 19.1529 20.9147 19.2322 20.8874 19.3431L20.6999 20.1038C20.6726 20.2108 20.7351 20.2583 20.8327 20.2068L22.3909 19.3748C22.4924 19.3193 22.5119 19.2995 22.5158 19.252C22.5236 19.2044 22.4846 19.1569 22.4299 19.1569H21.1295L21.1334 19.1529Z" fill="#CB1417"/>
<path d="M24.525 22.9921H24.527L24.5309 23H24.5231L24.525 22.9921Z" fill="#CB1417"/>
<path fill-rule="evenodd" clip-rule="evenodd" d="M24.9721 21.1775L24.525 22.9921H23.332L24.4918 18.416C24.5465 18.1941 24.7847 18.004 25.0112 18.004H28.065C28.3657 18.004 28.5571 18.2417 28.479 18.5586L27.366 22.996H26.1671L26.6357 21.1775H24.9721ZM26.9169 20.0246H25.2768C25.2768 20.0166 25.4408 19.359 25.4408 19.359C25.4681 19.2599 25.5814 19.1569 25.6868 19.1569H26.9599C27.0497 19.1569 27.1122 19.2361 27.0848 19.3391L26.9169 20.0246Z" fill="#CB1417"/>
<path d="M28.7055 19.1569L28.9983 18H32.923L32.6301 19.1569H31.2555L30.2871 22.9921H29.0999L30.0684 19.1569H28.7055Z" fill="#CB1417"/>
<path d="M35.9173 19.9176L35.9183 19.9136V19.9176H35.9173Z" fill="#CB1417"/>
<path d="M35.6254 21.0784L35.9173 19.9176H33.9813L34.1219 19.3629C34.1492 19.2639 34.2625 19.1609 34.3679 19.1609H36.7071L37 18.004H33.6962C33.4658 18.004 33.2198 18.1941 33.1651 18.416L32.1576 22.4453C32.0795 22.7623 32.2591 22.9921 32.5716 22.9921H35.7425L36.0354 21.8273H33.6767C33.5752 21.8273 33.5166 21.7559 33.5439 21.6529L33.6884 21.0784H35.6254Z" fill="#CB1417"/>
</svg>
