<svg width="40" height="40" viewBox="0 0 40 40" fill="none" xmlns="http://www.w3.org/2000/svg">
<rect width="40" height="40" fill="none"/>
<path d="M14.4966 19.3282C14.2951 19.1912 14.0549 19.1116 13.7977 19.1116L13.802 19.1204V19.1292C13.0902 19.1292 12.507 19.7306 12.507 20.4646C12.507 21.1986 13.0945 21.8 13.802 21.8C14.5094 21.8 15.0883 21.2075 15.0969 20.4779V20.4116C15.0454 17.7276 12.9444 15.5565 10.2988 15.5565C7.65322 15.5565 5.50074 17.7762 5.50074 20.5044C5.50074 23.2327 7.65322 25.4524 10.2988 25.4524C11.4994 25.4524 12.5499 25.0456 13.3818 24.3071C16.0831 23.9888 16.4132 21.7823 16.4132 21.7823C16.5505 21.2871 16.589 20.8493 16.5976 20.6371C16.5247 24.1568 13.7719 27 10.2988 27C6.82567 27 4 24.086 4 20.5C4 16.9139 6.85569 14 10.2988 14C13.7419 14 16.5462 16.8653 16.5976 20.4027V20.5C16.5762 22.0697 15.3456 23.3432 13.802 23.3432C12.2583 23.3432 11.002 22.0476 11.002 20.4558C11.002 19.2354 11.7352 18.1963 12.7686 17.7718C12.7686 17.7718 12.7714 17.7747 12.7754 17.7771C12.7784 17.779 12.7821 17.7806 12.7857 17.7806C12.923 17.8558 13.8663 18.382 14.4966 19.3282Z" fill="#46B554"/>
<path d="M19.4705 20.3939H21.2456L21.1513 20.8758H19.4705V22.3571H18.9302V18.5588H21.2971L21.3914 19.0408H19.4705V20.3939Z" fill="#46B554"/>
<path d="M24.4829 19.567V22.3527H23.9684L24.0155 21.9061C23.8097 22.2289 23.4753 22.4146 23.0251 22.4146C22.4248 22.4146 22.0346 22.0476 22.0346 21.4374V19.567H22.5663V21.3269C22.5663 21.7425 22.7721 21.9548 23.1494 21.9548C23.6254 21.9548 23.9512 21.5789 23.9512 20.9864V19.567H24.4829Z" fill="#46B554"/>
<path d="M27.3901 21.6364C27.2357 21.7116 27.0728 21.7646 26.897 21.7646L26.9012 21.769C26.5625 21.769 26.3996 21.5789 26.3996 21.1677V20.1595H27.3686L27.4801 19.567H26.3996V18.7003L25.6921 18.9037V19.567H25.0232L25.139 20.1595H25.6878V21.2827C25.6878 22.0078 26.0394 22.4235 26.6568 22.4235C26.8712 22.4235 27.0728 22.3792 27.3043 22.2731L27.3901 21.6364Z" fill="#46B554"/>
<path d="M30.533 22.3527H29.8941L29.9284 21.915C29.7226 22.2378 29.3925 22.4235 28.9551 22.4235C28.3377 22.4235 27.9518 22.0432 27.9518 21.4286V19.5626H28.6593V21.2782C28.6593 21.6275 28.8351 21.8177 29.1481 21.8177C29.5297 21.8177 29.817 21.5126 29.817 20.9643V19.5626H30.533V22.3527Z" fill="#46B554"/>
<path d="M32.9942 20.416H33.1658L33.1615 20.4071L33.0157 19.483C32.5054 19.4786 32.1838 19.7616 32.0595 20.2082L32.1024 19.5626H31.3177V22.3483H32.2524V21.1809C32.2524 20.6769 32.4968 20.416 32.9942 20.416Z" fill="#46B554"/>
<path fill-rule="evenodd" clip-rule="evenodd" d="M35.9957 20.6105V22.3527H35.2368L35.2968 21.9327C35.121 22.2422 34.8166 22.4279 34.4006 22.4279C33.7746 22.4279 33.2987 22.0122 33.2987 21.4197C33.2987 20.867 33.6717 20.6459 34.5507 20.6459H35.0867C35.0567 20.385 34.8337 20.2524 34.4006 20.2524C34.1219 20.2524 33.8389 20.2966 33.5388 20.3894L33.7103 19.6024C34.0062 19.5272 34.3278 19.4918 34.6751 19.4918C35.5841 19.4918 36 19.8677 36 20.615L35.9957 20.6105ZM35.0867 21.2252H34.6108C34.3578 21.2252 34.2334 21.2915 34.2334 21.4595C34.2334 21.6497 34.4006 21.7823 34.6322 21.7823C34.9109 21.7823 35.0867 21.5833 35.0867 21.2252Z" fill="#46B554"/>
</svg>
