<svg width="40" height="40" viewBox="0 0 40 40" fill="none" xmlns="http://www.w3.org/2000/svg">
<rect width="40" height="40" fill="none"/>
<path d="M26.2582 12.0546L23.1158 13.9701C22.9349 14.0578 22.8263 14.2518 22.8263 14.4521V15.8856C22.8263 16.28 23.2183 16.5429 23.5621 16.3739L24.5271 15.7855V24.1987C24.5271 24.4929 24.7624 24.7308 25.0458 24.7308H26.4873C26.7708 24.7308 27 24.4867 27 24.2676V12.6117C27 12.1422 26.6019 11.8793 26.2582 12.0546Z" fill="#C1160D"/>
<path fill-rule="evenodd" clip-rule="evenodd" d="M19.2015 15.4913C19.2015 15.172 19.3824 14.9842 19.69 14.9842V14.9905H21.0712C21.3788 14.9905 21.5597 15.1783 21.5597 15.4975V22.7965C21.5597 27.122 19.7141 29 16.3546 29C15.07 29 13.5863 28.5743 12.3257 27.7293C12.0422 27.5352 12 27.2598 12.1447 26.9656L12.7539 25.7198C12.8987 25.4256 13.2002 25.363 13.4656 25.5508C14.4849 26.2269 15.3595 26.5211 16.2943 26.5211C18.0434 26.5211 19.0567 25.6134 19.0808 23.6103C18.5742 24.1799 17.6936 24.7308 16.5597 24.7308C14.0145 24.7308 12 22.7464 12 19.8794C12 17.0124 14.1351 14.8152 16.62 14.8152C17.6333 14.8152 18.6526 15.3473 19.2015 16.0421V15.4913ZM14.4186 19.8544C14.4186 21.3943 15.4922 22.4522 16.7768 22.4522C18.0615 22.4522 19.117 21.4193 19.117 19.8544C19.117 18.2894 18.0555 17.2565 16.7768 17.2565C15.4982 17.2565 14.4186 18.3144 14.4186 19.8544Z" fill="#C1160D"/>
</svg>
