<svg width="40" height="40" viewBox="0 0 40 40" fill="none" xmlns="http://www.w3.org/2000/svg">
<rect width="40" height="40" fill="none"/>
<path fill-rule="evenodd" clip-rule="evenodd" d="M20.8453 18.9867C20.8453 16.1637 22.9048 14 25.4043 14L25.3982 14.0064C28.2766 14.0064 30 16.3109 30 19.2172V19.2364C30 19.5501 29.8228 19.7357 29.5233 19.7357H23.2776C23.5159 20.9584 24.4265 21.7714 25.6366 21.7714C26.4066 21.7714 26.9627 21.5409 27.3416 21.0224C27.5005 20.7919 27.6594 20.6895 27.9161 20.6895H29.4255C29.7678 20.6895 29.9023 20.9264 29.8045 21.2336C29.2545 22.994 27.6655 23.9735 25.5449 23.9735C22.9109 23.9735 20.8453 21.8098 20.8453 18.9867ZM25.4593 16.1445C24.3471 16.1445 23.5526 16.8422 23.2959 17.8217H27.4211C27.1644 16.7462 26.3699 16.1445 25.4593 16.1445Z" fill="url(#paint0_linear_5311_29243)"/>
<path fill-rule="evenodd" clip-rule="evenodd" d="M18.4925 14.192H19.843L19.8308 14.1984C20.1303 14.1984 20.3075 14.3905 20.3075 14.6978V21.893C20.3075 26.15 18.4985 28 15.229 28C13.9823 28 12.5339 27.5775 11.3056 26.7517C11.0306 26.5661 10.9939 26.2972 11.1283 26.0027L11.7272 24.7737C11.8678 24.4792 12.1673 24.4216 12.4239 24.6072C13.414 25.2666 14.2695 25.561 15.1801 25.561C16.8852 25.561 17.8752 24.6648 17.8996 22.6932C17.4046 23.2501 16.5552 23.7942 15.4429 23.7942C12.9617 23.7942 11 21.8418 11 19.0187C11 16.1957 13.0778 14.032 15.4979 14.032C16.494 14.032 17.4841 14.5505 18.0158 15.2355V14.6913C18.0158 14.3777 18.1991 14.192 18.4925 14.192ZM13.3467 18.9867C13.3467 20.5039 14.3918 21.5409 15.6446 21.5409C16.8913 21.5409 17.9241 20.5231 17.9241 18.9867C17.9241 17.4504 16.8913 16.4325 15.6446 16.4325C14.3979 16.4325 13.3467 17.4696 13.3467 18.9867Z" fill="url(#paint1_linear_5311_29243)"/>
<defs>
<linearGradient id="paint0_linear_5311_29243" x1="8.96495" y1="18.9867" x2="31.5767" y2="18.9867" gradientUnits="userSpaceOnUse">
<stop stop-color="#009863"/>
<stop offset="0.99" stop-color="#AFF006"/>
</linearGradient>
<linearGradient id="paint1_linear_5311_29243" x1="8.96495" y1="18.9867" x2="31.5767" y2="18.9867" gradientUnits="userSpaceOnUse">
<stop stop-color="#009863"/>
<stop offset="0.99" stop-color="#AFF006"/>
</linearGradient>
</defs>
</svg>
