<svg width="40" height="40" viewBox="0 0 40 40" fill="none" xmlns="http://www.w3.org/2000/svg">
<rect width="40" height="40" fill="none"/>
<path d="M36.0937 18.6214C35.9648 18.6214 35.8906 18.6695 35.8516 18.7768L35.0471 20.9868L34.1215 18.7768C34.0786 18.6695 34.0083 18.6214 33.8911 18.6214H33.1139C32.9616 18.6214 32.8992 18.7102 32.9694 18.8472L34.5589 22.2491L34.43 22.5082C34.2348 22.9117 34.0356 23.0672 33.8403 23.0672C33.7271 23.0672 33.6099 23.0375 33.4967 22.9857C33.3756 22.9302 33.2741 22.945 33.2116 23.0561L32.989 23.4595C32.9382 23.5558 32.946 23.652 33.0476 23.7261C33.2506 23.8815 33.5006 23.9926 33.8442 23.9926C34.6058 23.9926 35.0471 23.4595 35.461 22.4675L36.9763 18.8398C37.0349 18.7028 36.9841 18.614 36.8318 18.614H36.0898L36.0937 18.6214ZM4.01929 20.4944C4.01929 19.8948 4.47231 19.4987 5.01124 19.4987C5.55018 19.4987 5.99538 19.8948 5.99538 20.4944C5.99538 21.0941 5.55018 21.4902 5.01124 21.4902C4.47231 21.4902 4.01929 21.0867 4.01929 20.4944ZM3 20.5018C3 21.605 3.84746 22.3638 4.91361 22.3638C5.39396 22.3638 5.76107 22.1528 5.97195 21.9344C5.96414 22.7044 5.53456 23.0523 4.80036 23.0523C4.40592 23.0523 4.03882 22.9376 3.61314 22.6785C3.49988 22.6044 3.37491 22.6304 3.31633 22.7451L3.05858 23.2226C3 23.3374 3.01562 23.441 3.13669 23.5151C3.66781 23.8408 4.28876 24 4.82769 24C6.23751 24 7.01467 23.2782 7.01467 21.6161V18.8102C7.01467 18.688 6.93657 18.6177 6.8116 18.6177H6.2297C6.10083 18.6177 6.02663 18.6917 6.02663 18.8102V19.0211C5.79621 18.7546 5.36663 18.551 4.94095 18.551C3.89823 18.551 3 19.3913 3 20.4981M10.1038 20.4981C10.1038 19.9207 10.549 19.5024 11.0957 19.5024C11.6425 19.5024 12.0877 19.9244 12.0877 20.4981C12.0877 21.0719 11.6425 21.4939 11.0957 21.4939C10.549 21.4939 10.1038 21.0719 10.1038 20.4981ZM9.06887 20.4981C9.06887 21.6235 9.97491 22.4453 11.0957 22.4453C12.2166 22.4453 13.1226 21.6272 13.1226 20.4981C13.1226 19.3691 12.2166 18.551 11.0957 18.551C9.97491 18.551 9.06887 19.3691 9.06887 20.4981ZM19.0704 20.4981C19.0704 19.9207 19.5156 19.5024 20.0624 19.5024C20.6091 19.5024 21.0543 19.9244 21.0543 20.4981C21.0543 21.0719 20.6091 21.4939 20.0624 21.4939C19.5156 21.4939 19.0704 21.0719 19.0704 20.4981ZM18.0355 20.4981C18.0355 21.6235 18.9415 22.4453 20.0624 22.4453C21.1832 22.4453 22.0892 21.6272 22.0892 20.4981C22.0892 19.3691 21.1832 18.551 20.0624 18.551C18.9415 18.551 18.0355 19.3691 18.0355 20.4981ZM23.5889 20.4981C23.5889 19.9059 24.0341 19.5024 24.5652 19.5024C25.0963 19.5024 25.5415 19.9059 25.5415 20.4981C25.5415 21.0904 25.0963 21.4939 24.5652 21.4939C24.0341 21.4939 23.5889 21.0978 23.5889 20.4981ZM23.5498 19.0323V18.8139C23.5498 18.6917 23.4717 18.6214 23.3467 18.6214H22.7766C22.6477 18.6214 22.5735 18.6954 22.5735 18.8139V23.7409C22.5735 23.863 22.6516 23.9334 22.7766 23.9334H23.4092C23.5381 23.9334 23.6123 23.8593 23.6123 23.7409V22.0159C23.8583 22.2565 24.2606 22.4453 24.6784 22.4453C25.7212 22.4453 26.5764 21.605 26.5764 20.4981C26.5764 19.3913 25.7055 18.551 24.6863 18.551C24.2059 18.551 23.8037 18.7435 23.5498 19.0286M29.6148 20.4944C29.6148 19.8948 30.06 19.4987 30.5911 19.4987C31.1222 19.4987 31.5674 19.8948 31.5674 20.4944C31.5674 21.0941 31.1222 21.4902 30.5911 21.4902C30.06 21.4902 29.6148 21.0867 29.6148 20.4944ZM28.5799 20.4944C28.5799 21.5976 29.4508 22.4416 30.47 22.4416C30.9465 22.4416 31.3526 22.2491 31.6065 21.964V22.1824C31.6065 22.3046 31.6846 22.3749 31.8096 22.3749H32.3836C32.5125 22.3749 32.5867 22.3009 32.5867 22.1824V18.8102C32.5867 18.688 32.5086 18.6177 32.3836 18.6177H31.8096C31.6807 18.6177 31.6065 18.6917 31.6065 18.8102V19.0434C31.3644 18.7657 30.9309 18.551 30.4779 18.551C29.4351 18.551 28.5799 19.3913 28.5799 20.4981V20.4944ZM14.6222 20.4944C14.6222 19.9022 15.0674 19.4987 15.5986 19.4987C16.1297 19.4987 16.5749 19.9022 16.5749 20.4944C16.5749 21.0867 16.1297 21.4902 15.5986 21.4902C15.0674 21.4902 14.6222 21.0941 14.6222 20.4944ZM13.7982 17.0703C13.6693 17.0703 13.5951 17.1444 13.5951 17.2628V22.1824C13.5951 22.3046 13.6732 22.3749 13.7982 22.3749H14.3684C14.4973 22.3749 14.5715 22.3009 14.5715 22.1824V21.9714C14.8175 22.238 15.2822 22.4416 15.7314 22.4416C16.7311 22.4416 17.5942 21.5828 17.5942 20.4944C17.5942 19.4061 16.7194 18.5473 15.704 18.5473C15.294 18.5473 14.8917 18.7176 14.6261 18.9767V17.2591C14.6261 17.137 14.548 17.0666 14.4231 17.0666H13.7904L13.7982 17.0703ZM27.256 17.0703C27.1271 17.0703 27.0529 17.1444 27.0529 17.2628V22.1824C27.0529 22.3046 27.131 22.3749 27.256 22.3749H27.8964C28.0253 22.3749 28.0995 22.3009 28.0995 22.1824V17.2702C28.0995 17.1481 28.0214 17.0777 27.8964 17.0777H27.256V17.0703ZM7.54189 17.2961V22.1491C7.54189 22.4082 7.71373 22.5156 7.95976 22.4082L8.2839 22.2713C8.48698 22.1824 8.58071 22.0529 8.58071 21.8419V17.6071C8.58071 17.3961 8.48698 17.2665 8.2839 17.1777L7.95976 17.0407C7.89728 17.0111 7.83479 17 7.78402 17C7.63172 17 7.54189 17.1073 7.54189 17.2998V17.2961Z" fill="url(#paint0_linear_5311_29211)"/>
<defs>
<linearGradient id="paint0_linear_5311_29211" x1="3" y1="20.5019" x2="37.0036" y2="20.5019" gradientUnits="userSpaceOnUse">
<stop stop-color="#F50234"/>
<stop offset="1" stop-color="#FF8A01"/>
</linearGradient>
</defs>
</svg>
