<svg width="40" height="40" viewBox="0 0 40 40" fill="none" xmlns="http://www.w3.org/2000/svg">
<rect width="40" height="40" fill="none"/>
<path d="M12.7838 12.0586C12.4464 11.9065 12.2054 12.0586 12.2054 12.4214V19.2208C12.2054 19.5836 12.4343 19.7357 12.7838 19.5836L13.2296 19.3963C13.5067 19.2676 13.6393 19.0921 13.6393 18.7995V12.8544C13.6393 12.5618 13.5067 12.3746 13.2296 12.2576L12.7838 12.0586ZM23.3872 14.1768C22.8209 14.1768 22.2786 14.4109 21.9172 14.7737V12.3746C21.9172 12.199 21.8087 12.1054 21.64 12.1054H20.7725C20.5917 12.1054 20.4953 12.2107 20.4953 12.3746V19.2676C20.4953 19.4432 20.6038 19.5368 20.7725 19.5368H21.5557C21.7364 19.5368 21.8328 19.4315 21.8328 19.2676V18.975C22.1702 19.3495 22.7968 19.6304 23.4233 19.6304C24.7849 19.6304 25.9657 18.425 25.9657 16.9036C25.9657 15.3588 24.7728 14.1768 23.3872 14.1768ZM10.4101 14.2705C10.2293 14.2705 10.1329 14.3758 10.1329 14.5396V14.8322C9.81963 14.4577 9.22922 14.1768 8.65085 14.1768C7.22903 14.1768 6 15.3588 6 16.9036C6 18.4484 7.15673 19.5134 8.6147 19.5134C9.26537 19.5134 9.77144 19.2208 10.0606 18.9165C10.0486 19.9932 9.4702 20.4847 8.45806 20.4847C7.92789 20.473 7.42182 20.3209 6.84345 19.9581C6.68681 19.8528 6.51812 19.8879 6.43378 20.0517L6.08435 20.7188C6 20.8709 6.0241 21.023 6.19279 21.1284C6.91575 21.5848 7.77125 21.8071 8.50626 21.8071C10.4342 21.8071 11.4945 20.8007 11.4945 18.4718V14.5396C11.4945 14.3641 11.386 14.2705 11.2174 14.2705H10.4101ZM17.0613 14.1768C15.5551 14.1768 14.2899 15.3237 14.2899 16.9036C14.2899 18.4835 15.531 19.6304 17.0613 19.6304C18.5674 19.6304 19.8326 18.4835 19.8326 16.9036C19.8326 15.3237 18.5915 14.1768 17.0613 14.1768ZM29.3154 14.1768C27.8093 14.1768 26.5441 15.3237 26.5441 16.9036C26.5441 18.4835 27.7852 19.6304 29.3154 19.6304C30.8216 19.6304 32.0868 18.4835 32.0868 16.9036C32.0868 15.3237 30.8457 14.1768 29.3154 14.1768ZM8.74725 18.2846C8.01224 18.2846 7.39772 17.7228 7.39772 16.8919C7.39772 16.0493 8.01224 15.4993 8.74725 15.4993C9.48225 15.4993 10.0968 16.061 10.0968 16.8919C10.0847 17.7228 9.48225 18.2846 8.74725 18.2846ZM17.0613 18.2963C16.3142 18.2963 15.7118 17.7111 15.7118 16.9036C15.7118 16.0961 16.3142 15.511 17.0613 15.511C17.8083 15.511 18.4108 16.0961 18.4108 16.9036C18.4229 17.7111 17.8083 18.2963 17.0613 18.2963ZM23.2185 18.2963C22.4955 18.2963 21.881 17.7345 21.881 16.9036C21.881 16.0727 22.4835 15.511 23.2185 15.511C23.9414 15.511 24.556 16.0727 24.556 16.9036C24.556 17.7462 23.9414 18.2963 23.2185 18.2963ZM29.3154 18.2963C28.5684 18.2963 27.9659 17.7111 27.9659 16.9036C27.9659 16.0961 28.5684 15.511 29.3154 15.511C30.0625 15.511 30.665 16.0961 30.665 16.9036C30.677 17.7111 30.0625 18.2963 29.3154 18.2963Z" fill="url(#paint0_linear_5311_29213)"/>
<path fill-rule="evenodd" clip-rule="evenodd" d="M22.5772 21.5347C21.0711 21.5347 19.8059 22.6816 19.8059 24.2615C19.8059 25.8414 21.047 26.9883 22.5772 26.9883C24.0834 26.9883 25.3486 25.8414 25.3486 24.2615C25.3486 22.6816 24.1075 21.5347 22.5772 21.5347ZM22.5773 25.6542C21.8302 25.6542 21.2277 25.069 21.2277 24.2615C21.2277 23.454 21.8302 22.8689 22.5773 22.8689C23.3243 22.8689 23.9268 23.454 23.9268 24.2615C23.9388 25.069 23.3364 25.6542 22.5773 25.6542Z" fill="url(#paint1_linear_5311_29213)"/>
<path d="M17.8178 25.1626C17.9021 25.0339 17.9865 24.9637 18.1431 24.9637V24.9871H19.0588C19.2396 24.9871 19.3601 25.0924 19.3119 25.2797C19.0106 26.3212 17.9865 27 16.8177 27C15.2995 27 14.1307 25.8531 14.1307 24.2732C14.1307 22.6933 15.3477 21.5464 16.8177 21.5464C17.9624 21.5464 18.9745 22.2369 19.2878 23.2317C19.348 23.4189 19.2396 23.5359 19.0468 23.5359H18.1069C17.9624 23.5359 17.8539 23.4774 17.7696 23.337C17.5647 23.0327 17.2514 22.8689 16.8418 22.8689C16.1188 22.8689 15.5404 23.454 15.5404 24.2615C15.5404 25.0573 16.1068 25.6542 16.8418 25.6542C17.2635 25.6542 17.6129 25.5137 17.8178 25.1626Z" fill="url(#paint2_linear_5311_29213)"/>
<path d="M30.1683 22.2837C30.578 21.7688 31.1684 21.5347 31.7468 21.5347C33.1445 21.5347 33.9759 22.4242 34 23.8168V26.6138C34 26.7776 33.9036 26.883 33.7229 26.883H32.8553C32.6866 26.883 32.5782 26.7893 32.5782 26.6138V23.9806C32.5782 23.2317 32.277 22.8455 31.6865 22.8455C31.0961 22.8455 30.7226 23.2902 30.7226 24.0275V26.6138C30.7226 26.7776 30.6262 26.883 30.4455 26.883H29.5779C29.4092 26.883 29.3008 26.7893 29.3008 26.6138V23.9806C29.3008 23.2317 28.9875 22.8455 28.4091 22.8455C27.8187 22.8455 27.4452 23.2902 27.4452 24.0275V26.6138C27.4452 26.7776 27.3488 26.883 27.168 26.883H26.3005C26.1318 26.883 26.0234 26.7893 26.0234 26.6138V21.8975C26.0234 21.7337 26.1197 21.6284 26.3005 21.6284H27.0837C27.2524 21.6284 27.3608 21.722 27.3608 21.8975V22.1667C27.65 21.8039 28.0958 21.5347 28.7224 21.5347C29.361 21.5347 29.8671 21.8507 30.1683 22.2837Z" fill="url(#paint3_linear_5311_29213)"/>
<path d="M12.1184 26.0755C12.1184 25.5371 12.5643 25.1743 13.0462 25.1743C13.5282 25.1743 13.974 25.5371 13.974 26.0872C13.974 26.6255 13.5282 26.9883 13.0462 26.9883C12.5643 26.9883 12.1184 26.6255 12.1184 26.0755Z" fill="url(#paint4_linear_5311_29213)"/>
<defs>
<linearGradient id="paint0_linear_5311_29213" x1="15.8814" y1="24.2675" x2="33.7381" y2="28.3573" gradientUnits="userSpaceOnUse">
<stop stop-color="#0521F8"/>
<stop offset="1" stop-color="#05A4F8"/>
</linearGradient>
<linearGradient id="paint1_linear_5311_29213" x1="15.8814" y1="24.2675" x2="33.7381" y2="28.3573" gradientUnits="userSpaceOnUse">
<stop stop-color="#0521F8"/>
<stop offset="1" stop-color="#05A4F8"/>
</linearGradient>
<linearGradient id="paint2_linear_5311_29213" x1="15.8814" y1="24.2675" x2="33.7381" y2="28.3573" gradientUnits="userSpaceOnUse">
<stop stop-color="#0521F8"/>
<stop offset="1" stop-color="#05A4F8"/>
</linearGradient>
<linearGradient id="paint3_linear_5311_29213" x1="15.8814" y1="24.2675" x2="33.7381" y2="28.3573" gradientUnits="userSpaceOnUse">
<stop stop-color="#0521F8"/>
<stop offset="1" stop-color="#05A4F8"/>
</linearGradient>
<linearGradient id="paint4_linear_5311_29213" x1="15.8814" y1="24.2675" x2="33.7381" y2="28.3573" gradientUnits="userSpaceOnUse">
<stop stop-color="#0521F8"/>
<stop offset="1" stop-color="#05A4F8"/>
</linearGradient>
</defs>
</svg>
