<svg width="40" height="40" viewBox="0 0 40 40" fill="none" xmlns="http://www.w3.org/2000/svg">
<rect width="40" height="40" fill="none"/>
<path d="M8.49016 19.0783C7.68999 19.0783 7.07479 19.7267 7.07479 20.496C7.07479 21.2733 7.68999 21.9177 8.49016 21.9177C9.29032 21.9177 9.90551 21.2693 9.90551 20.496C9.90551 19.7227 9.29032 19.0783 8.49016 19.0783Z" fill="#E22F2E"/>
<path fill-rule="evenodd" clip-rule="evenodd" d="M5 20.496C5 18.5708 6.56413 17 8.49015 17C10.4121 17 11.9883 18.5627 11.9883 20.496C11.9883 22.4292 10.4121 24 8.49015 24C6.56815 24 5 22.4212 5 20.496ZM8.49015 22.256C9.28629 22.256 10.1106 22.2359 10.8746 22.1513C11.0957 22.1312 11.2083 22.0748 11.2364 21.8412C11.2726 21.4022 11.2726 20.943 11.2726 20.496C11.2726 20.0489 11.2726 19.5978 11.2364 19.1588C11.2083 18.9252 11.0957 18.8688 10.8746 18.8487C10.1106 18.7641 9.28629 18.744 8.49015 18.744C7.694 18.744 6.8657 18.7641 6.09771 18.8487C5.88058 18.8688 5.768 18.9252 5.73985 19.1588C5.69963 19.5978 5.69963 20.0408 5.69963 20.496C5.69963 20.9511 5.69963 21.4022 5.73985 21.8412C5.768 22.0748 5.88058 22.1312 6.09771 22.1513C6.86972 22.2359 7.694 22.256 8.49015 22.256Z" fill="#E22F2E"/>
<path d="M17.1793 20.0046V22.8239C17.1793 22.9891 17.0788 23.0938 16.914 23.0938H16.0857C15.9208 23.0938 15.8203 22.9931 15.8203 22.8239V20.2261C15.8203 19.4891 15.5428 19.1064 14.9397 19.1064C14.3366 19.1064 13.9666 19.5455 13.9666 20.2704V22.8239C13.9666 22.9891 13.8661 23.0938 13.7013 23.0938H12.8729C12.7081 23.0938 12.6076 22.9931 12.6076 22.8239V18.164C12.6076 17.9988 12.7081 17.8982 12.8729 17.8982H13.6208C13.7857 17.8982 13.8862 17.9988 13.8862 18.164V18.454C14.1998 18.0834 14.7025 17.8055 15.3297 17.8055C16.4918 17.8055 17.1874 18.6231 17.1874 20.0006L17.1793 20.0046Z" fill="#E22F2E"/>
<path fill-rule="evenodd" clip-rule="evenodd" d="M22.889 20.6329V20.6249C22.889 19.0581 21.916 17.8136 20.2955 17.8136C18.8842 17.8136 17.7222 18.9453 17.7222 20.5C17.7222 22.0547 18.8842 23.1864 20.3719 23.1864C21.5702 23.1864 22.4668 22.6588 22.7764 21.7083C22.8327 21.5391 22.7523 21.4183 22.5633 21.4183H21.7149C21.5661 21.4183 21.4777 21.4747 21.3892 21.5955C21.1761 21.8774 20.8665 21.9983 20.4282 21.9983C19.7447 21.9983 19.23 21.5593 19.0973 20.8987H22.6196C22.7885 20.8987 22.889 20.798 22.889 20.6329ZM21.4375 19.8717H19.1094C19.2541 19.3481 19.7004 18.9655 20.3277 18.9655C20.8464 18.9655 21.2927 19.2877 21.4375 19.8717Z" fill="#E22F2E"/>
<path d="M30.1427 17.9022C30.3317 17.9022 30.4242 18.023 30.3639 18.2043L28.8882 22.8723C28.844 23.0173 28.7314 23.0938 28.5786 23.0938H27.7744C27.6176 23.0938 27.5171 23.0173 27.4729 22.8723L26.6245 19.7791L25.7961 22.8723C25.7519 23.0173 25.6514 23.0938 25.4946 23.0938H24.6904C24.5336 23.0938 24.421 23.0173 24.3768 22.8723L22.881 18.2043C22.8247 18.027 22.9131 17.9022 23.1021 17.9022H24.1074C24.2642 17.9022 24.3647 17.9787 24.3969 18.1358L25.1005 21.1041L25.9168 18.1358C25.961 17.9908 26.0495 17.9022 26.2063 17.9022H27.0989C27.2557 17.9022 27.3442 17.9787 27.3884 18.1358L28.2047 21.1243L28.8963 18.1358C28.9284 17.9787 29.0289 17.9022 29.1858 17.9022H30.1427Z" fill="#E22F2E"/>
<path d="M30.8866 21.4183C30.6976 21.4183 30.5971 21.5311 30.6534 21.7083L30.6454 21.7123H30.6534C30.8987 22.4856 31.5139 23.1904 32.8448 23.1904C34.0832 23.1904 35 22.5299 35 21.5109C35 20.4154 34.1838 20.1214 33.4037 19.9643C33.2558 19.9348 33.1088 19.9109 32.9686 19.888C32.4189 19.7983 31.9723 19.7254 31.9723 19.4045C31.9723 19.1991 32.1934 19.0219 32.6196 19.0219C33.1423 19.0219 33.3554 19.1709 33.5002 19.3924C33.5927 19.5374 33.649 19.5817 33.7817 19.5817H34.6622C34.8512 19.5817 34.9517 19.4689 34.8955 19.2796C34.6381 18.3976 33.9224 17.8136 32.7483 17.8136C31.4536 17.8136 30.6373 18.454 30.6373 19.3924C30.6373 20.5886 31.5541 20.8464 32.3703 21.0035C32.4374 21.0155 32.5039 21.027 32.5691 21.0382C33.1564 21.1393 33.6449 21.2233 33.6449 21.6076C33.6449 21.8573 33.3474 21.9781 32.9091 21.9781C32.3743 21.9781 32.1813 21.809 32.0487 21.5955C31.9723 21.4747 31.8918 21.4183 31.7591 21.4183H30.8866Z" fill="#E22F2E"/>
</svg>
