<svg width="40" height="40" viewBox="0 0 40 40" fill="none" xmlns="http://www.w3.org/2000/svg">
<rect width="40" height="40" fill="none"/>
<path d="M31.1326 19.3177C31.1226 20.3343 31.1129 21.3224 31.9757 21.8442L31.9811 21.8496C32.4827 22.1509 33.3867 22.1321 33.9377 22.1207L34 22.1194V22.864C33.6798 22.8856 33.4356 22.891 33.148 22.891C30.0979 22.891 28.8008 21.7416 28.8008 19.3458V13H31.1345V16.0326H33.8698V16.7719H31.1345V19.0868C31.1341 19.1638 31.1334 19.2409 31.1326 19.3177Z" fill="#F64C00"/>
<path d="M25.4957 19.1246C25.4957 17.1766 24.6111 16.4373 22.2991 16.4373C21.7518 16.4373 20.8859 16.4974 20.6468 16.514C20.6087 16.5167 20.5864 16.5182 20.5841 16.5182V22.6158H18.1745V15.7574H22.8636C22.8969 15.7574 22.9308 15.7574 22.9653 15.7573L23.0433 15.7571C24.8399 15.7525 27.8945 15.7447 27.8945 19.4753V22.6158H25.4848V19.1246H25.4957Z" fill="#F64C00"/>
<path fill-rule="evenodd" clip-rule="evenodd" d="M11.8193 15.7574C10.0555 15.7574 7 16.1891 7 19.2595C7 22.3298 10.5005 22.7615 11.8193 22.7885C12.9102 22.8101 13.773 22.7237 14.6794 22.427C14.6794 22.427 14.7011 23.0475 14.6685 23.5547C14.6088 24.4019 14.4515 24.9361 14.0715 25.3948C13.366 26.2639 11.935 26.2796 11.0226 26.2896L10.9401 26.2905C10.5168 26.2905 9.75157 26.2258 9.75157 26.2258V26.8895C13.2792 27.2079 16.4921 27.0028 16.9805 24.0242C17.051 23.5925 17.0619 23.1392 17.0619 22.3568V15.7574H11.8193ZM14.6794 21.596C14.6794 21.6553 13.5777 22.114 12.21 21.9737C10.6145 21.8064 9.5616 20.7488 9.5616 19.2595C9.5616 17.6892 10.5873 16.7017 11.8519 16.5128C12.3403 16.4427 13.0513 16.4049 13.6157 16.4319C14.1855 16.4535 14.6903 16.5128 14.6903 16.5128V21.596H14.6794Z" fill="#F64C00"/>
</svg>
