<svg width="40" height="40" viewBox="0 0 40 40" fill="none" xmlns="http://www.w3.org/2000/svg">
<rect width="40" height="40" fill="none"/>
<path d="M10.3134 17.232C10.4579 17.2173 10.5875 17.3201 10.5975 17.4619V21.5611C10.5975 23.9679 9.51091 25 7.54704 25C6.71464 24.9853 5.89718 24.7456 5.19437 24.2956C5.04484 24.2173 4.995 24.0363 5.07475 23.8896C5.07475 23.8847 5.08473 23.8749 5.08473 23.87L5.43364 23.1803C5.49346 23.0482 5.65294 22.9895 5.78752 23.0482C5.81244 23.058 5.83238 23.0727 5.85232 23.0874C6.33581 23.4249 6.91401 23.6157 7.51214 23.6254C8.53894 23.6254 9.13207 23.1216 9.14702 22.0112C8.76322 22.4074 8.22991 22.6373 7.67165 22.6324C6.1813 22.6324 5 21.5318 5 19.9371C5 18.3424 6.25109 17.1293 7.70654 17.1293C8.28474 17.1342 8.838 17.3837 9.2218 17.8043V17.4962C9.20685 17.3543 9.31154 17.232 9.45609 17.2173H10.3184L10.3134 17.232ZM9.16698 19.9322C9.16698 19.0664 8.54891 18.4941 7.79626 18.4941C7.04361 18.4941 6.40558 19.0664 6.40558 19.9322C6.36571 20.6855 6.94889 21.3312 7.72148 21.3704H7.79626C8.54891 21.3704 9.16698 20.7834 9.16698 19.9322ZM11.3153 21.2089C11.2555 21.0133 11.3601 20.9008 11.5645 20.9008H12.4966C12.6312 20.9008 12.7508 20.9741 12.8056 21.0964C12.9502 21.3215 13.1496 21.4878 13.7228 21.4878C14.1863 21.4878 14.5153 21.3606 14.5153 21.0964C14.5153 20.0985 11.2804 21.0524 11.2804 18.7778C11.2804 17.7799 12.1626 17.1244 13.5583 17.1244C14.8094 17.1244 15.5769 17.731 15.8461 18.6555C15.9059 18.8512 15.8012 18.9734 15.5969 18.9734H14.6449C14.5003 18.9734 14.4455 18.9294 14.3458 18.7778C14.1913 18.543 13.962 18.3864 13.4038 18.3864C12.9502 18.3864 12.686 18.5821 12.686 18.7778C12.686 19.6583 15.9408 18.7778 15.9408 20.979C15.9408 22.0454 14.9639 22.7352 13.638 22.7352C12.2174 22.7498 11.5645 22.0063 11.3003 21.2041L11.3153 21.2089ZM21.4935 19.4333V22.383C21.5084 22.5248 21.3988 22.6471 21.2542 22.6618H20.3321C20.1875 22.6764 20.058 22.5737 20.048 22.4319V19.6681C20.048 18.8903 19.7489 18.499 19.1059 18.499C18.463 18.499 18.0692 18.9539 18.0692 19.717V22.3878C18.0841 22.5297 17.9795 22.652 17.8349 22.6667H16.9028C16.7583 22.6813 16.6287 22.5786 16.6187 22.4368V15.2802C16.6038 15.1384 16.7084 15.0161 16.853 15.0014H17.7851C17.9296 14.9867 18.0542 15.0894 18.0692 15.2313V17.731C18.453 17.3494 18.9763 17.1342 19.5246 17.144C20.7657 17.144 21.4985 17.9951 21.4985 19.4333H21.4935ZM22.1365 19.9469C22.1365 18.4158 23.4025 17.1733 24.9627 17.1733C26.5228 17.1733 27.7888 18.4158 27.7888 19.9469C27.7888 21.478 26.5228 22.7205 24.9627 22.7205C23.4025 22.7205 22.1365 21.478 22.1365 19.9469ZM26.7421 19.9029C26.7421 19.7952 26.6524 19.7072 26.5427 19.7072C26.4331 19.7072 26.3433 19.7952 26.3433 19.9029C26.3533 20.6562 25.7402 21.2725 24.9726 21.2823C24.22 21.2823 23.6069 20.6904 23.5969 19.9469V19.9029C23.5969 19.7952 23.5072 19.7072 23.3975 19.7072C23.2879 19.7072 23.1981 19.7952 23.1981 19.9029C23.1981 20.8665 23.9907 21.6443 24.9726 21.6492C25.9545 21.6492 26.7471 20.8714 26.7521 19.9078H26.7321L26.7421 19.9029ZM35.739 17.232C35.8636 17.2124 35.9783 17.2956 35.9982 17.4179C36.0032 17.4619 35.9982 17.5059 35.9782 17.5451L34.3583 22.4221C34.3184 22.5688 34.1789 22.6667 34.0244 22.6569H33.167C33.0175 22.6667 32.8779 22.5688 32.843 22.4221L31.911 19.1789L31.0138 22.4221C30.9789 22.5688 30.8443 22.6667 30.6898 22.6569H29.8324C29.6779 22.6667 29.5384 22.5688 29.4985 22.4221L27.8536 17.5451C27.7988 17.4326 27.8487 17.3005 27.9583 17.2467C27.9982 17.2271 28.043 17.2222 28.0879 17.2271H29.1595C29.3141 17.2124 29.4486 17.3249 29.4736 17.4717L30.2661 20.5926L31.1732 17.4717C31.1982 17.3249 31.3327 17.2222 31.4823 17.2271H32.4293C32.5838 17.2173 32.7184 17.3249 32.7384 17.4717L33.6356 20.6073L34.4281 17.4717C34.448 17.3201 34.5876 17.2173 34.7371 17.2271H35.739V17.232Z" fill="#E9691B"/>
</svg>
