<svg width="40" height="40" viewBox="0 0 40 40" fill="none" xmlns="http://www.w3.org/2000/svg">
<rect width="40" height="40" fill="none"/>
<path d="M21.2886 13.0056H23.3818V17.6234H26.4542V19.439H21.2886V13V13.0056ZM31.9011 13.0056H33.9944V19.4446H31.9011V13.0056ZM27.287 14.8268H25.4751V13.0113H31.2034V14.8268H29.3859V19.4446H27.2927V14.8268H27.287ZM8.2677 16.3604L9.78697 18.5989L11.3176 16.3604V19.4221H13.3376V13.0451H11.2275L9.83203 15.2835L8.43654 13.0451H6.14631V19.4221H8.2677V16.3604ZM18.2556 13.0451V16.4676C18.2556 17.2964 17.8955 17.6291 17.3215 17.6291C16.7476 17.6291 16.3931 17.2682 16.3931 16.4225V13.0507H14.1198V16.5409C14.1198 18.7004 15.3971 19.5856 17.3328 19.5856C19.2685 19.5856 20.5852 18.7173 20.5852 16.507V13.0507H18.2556V13.0451ZM16.5 20.4088V22.6867H14.3786V20.4088H12.3529V26.9944H14.3786V24.7165H16.5V26.9944H18.5201V20.4088H16.5ZM19.1954 23.6621V23.6452C19.1954 21.7789 20.7203 20.2904 22.6954 20.2904C24.6704 20.2904 26.1784 21.762 26.1784 23.6283V23.6452C26.1784 25.5115 24.6535 27 22.6785 27C20.7034 27 19.1954 25.5284 19.1954 23.6621ZM24.0177 23.6621V23.6452C24.0177 22.884 23.5 22.1905 22.6728 22.1905C21.8457 22.1905 21.3505 22.8727 21.3505 23.6283V23.6452C21.3505 24.4064 21.8682 25.0999 22.6954 25.0999C23.5225 25.0999 24.0177 24.4176 24.0177 23.6621ZM31.8224 23.5042L30.3255 21.2658L28.8232 23.5042V20.4144H26.7524V27H28.9751L30.3706 24.7616L31.7661 27H34V20.4144H31.828V23.5042H31.8224ZM9.77014 22.8615C9.60133 22.8164 9.24116 22.7431 9.24116 22.7431C8.55467 22.6021 8.42527 22.4893 8.42527 22.3089V22.292C8.42527 22.1285 8.59409 21.9762 8.92045 21.9762C9.38749 21.9762 9.86577 22.1398 10.3778 22.3935L11.7958 21.1192C11.0531 20.561 10.0627 20.2847 8.85293 20.2847C7.05792 20.2847 6 21.2489 6 22.495V22.5119C6 23.6283 6.91724 24.1188 8.00888 24.4233C8.17769 24.4684 8.56595 24.5417 8.56595 24.5417C9.25244 24.6826 9.41 24.7954 9.41 24.9758V24.9928C9.41 25.1563 9.25245 25.3085 8.92609 25.3085C8.45904 25.3085 7.98071 25.145 7.47991 24.8913L6.06752 26.1599C6.80466 26.7181 7.71065 26.9944 8.92609 26.9944C10.7267 26.9944 11.6889 26.0302 11.6889 24.7841V24.7672C11.6889 23.6508 10.8618 23.1603 9.77014 22.8558V22.8615Z" fill="#25A8FA"/>
</svg>
