<svg width="40" height="40" viewBox="0 0 40 40" fill="none" xmlns="http://www.w3.org/2000/svg">
<rect width="40" height="40" fill="none"/>
<path d="M28.1845 15.009C28.556 14.9551 29.0372 15.063 29.2694 15.4405L31 14.4033C30.3668 13.3826 29.1385 12.8473 27.8764 13.0382C26.5721 13.2332 25.5632 14.1709 25.234 15.482C25.1031 16.0048 24.9934 16.5359 24.8921 17.0711H21.1311C21.207 16.6936 21.2915 16.3202 21.3843 15.9633C21.5658 15.2372 22.0766 15.0547 22.3678 15.0132C22.7393 14.9592 23.2205 15.0671 23.4527 15.4447L25.1833 14.4074C24.5502 13.3867 23.3218 12.8515 22.0597 13.0423C20.7554 13.2373 19.7465 14.1751 19.4173 15.4862C19.2864 16.009 19.1725 16.5401 19.0669 17.0753H13.4951C11.566 17.0753 10 18.6188 10 20.5108C10 22.4028 11.5703 23.9463 13.4951 23.9463C15.4199 23.9463 16.9901 22.4028 16.9901 20.5108C16.9901 19.9216 16.8382 19.3615 16.568 18.876H18.7208C17.999 22.4899 17.2097 24.7346 14.0396 24.9213L13.609 28C16.1544 28 17.961 25.9918 19.1345 24.0625C20.0336 22.5937 20.4346 20.7183 20.7849 18.8719H24.5755C24.2842 20.4942 23.9676 22.0003 23.2923 23.0999C22.6549 24.1371 21.7389 24.7014 20.4008 24.8715L19.966 27.9792C22.2876 27.8631 23.9508 25.8839 25.0272 24.133C25.9431 22.6476 26.3061 20.739 26.6354 18.8719H28.8557L29.244 17.067H26.9688C27.0448 16.6894 27.125 16.316 27.2137 15.9592C27.3952 15.2331 27.9059 15.0505 28.1972 15.009M13.4993 22.1497C12.5833 22.1497 11.8362 21.4153 11.8362 20.5149C11.8362 19.6146 12.5833 18.8802 13.4993 18.8802C14.4153 18.8802 15.1624 19.6146 15.1624 20.5149C15.1624 21.4153 14.4153 22.1497 13.4993 22.1497Z" fill="black"/>
</svg>
