<svg width="40" height="40" viewBox="0 0 40 40" fill="none" xmlns="http://www.w3.org/2000/svg">
<rect width="40" height="40" fill="none"/>
<path d="M5.49081 19.7299H7.88253V20.4105H5.49081V19.7299Z" fill="#2A8D3C"/>
<path d="M9.82665 19.7299H12.1979V20.4105H9.82665V19.7299Z" fill="#2A8D3C"/>
<path d="M28.1199 19.7299V20.4105H30.4911V19.7299H28.1199Z" fill="#2A8D3C"/>
<path fill-rule="evenodd" clip-rule="evenodd" d="M3.5091 18H36.4909C36.7711 18 37 18.2113 37 18.4728V22.5272C37 22.7887 36.7745 23 36.4909 23H3.5091C3.22893 23 3 22.7887 3 22.5272V18.4728C3 18.2113 3.22893 18 3.5091 18ZM7.73561 20.9871C8.14903 20.9871 8.48729 20.6755 8.48729 20.2887V19.841C8.48729 19.4542 8.15245 19.1426 7.73561 19.1426H5.61381C5.20038 19.1426 4.86212 19.4542 4.86212 19.841V21.861H5.49423V21.0981C5.49423 21.0372 5.54889 20.9871 5.61381 20.9871H7.73561ZM11.1079 20.9979L12.0407 21.8646H12.9461L12.0065 20.9979H12.0783C12.4917 20.9979 12.8334 20.6827 12.8334 20.2958V19.8446C12.8334 19.4577 12.4951 19.1426 12.0783 19.1426H9.94965C9.53281 19.1426 9.19455 19.4577 9.19455 19.8446V21.861H9.83006V21.1053C9.83348 21.0444 9.88473 20.9979 9.94965 20.9979H11.1079ZM14.347 19.7085H16.8481V19.1461H14.2889C13.7867 19.1461 13.5372 19.558 13.5372 19.8517V21.1734C13.5372 21.5136 13.8174 21.8575 14.3367 21.8575H16.8481V21.2736H14.3436C14.2855 21.2736 14.224 21.2378 14.224 21.1769V20.74H16.8446V20.1669H14.224V19.8052C14.224 19.7514 14.265 19.7085 14.347 19.7085ZM20.7158 21.8646H21.3821V19.1426H20.5928L19.4653 20.9298L18.3583 19.1426H17.5485V21.861H18.2113V19.9198L19.2022 21.5351H19.7728L20.7158 19.9269V21.8646ZM22.0825 21.8718H22.7693V19.1318H22.0825V21.8718ZM26.7805 19.7085V19.1461H24.2214C23.7191 19.1461 23.4697 19.558 23.4697 19.8517V21.1734C23.4697 21.5136 23.7499 21.8575 24.2692 21.8575H26.7805V21.2736H24.2795C24.2248 21.2736 24.1599 21.2378 24.1599 21.1769V20.74H26.7805V20.1669H24.1599V19.8052C24.1599 19.7514 24.2043 19.7085 24.2829 19.7085H26.7805ZM29.4012 20.9979L30.3339 21.8646H31.2394L30.2998 20.9979H30.3715C30.7849 20.9979 31.1266 20.6827 31.1266 20.2958V19.8446C31.1266 19.4577 30.7918 19.1426 30.3715 19.1426H28.2429C27.8226 19.1426 27.4844 19.4577 27.4844 19.8446V21.861H28.1199V21.1053C28.1233 21.0444 28.1746 20.9979 28.2395 20.9979H29.4012ZM35.1345 19.7085V19.1461H32.5753C32.0731 19.1461 31.8236 19.558 31.8236 19.8517V21.1734C31.8236 21.5136 32.1072 21.8575 32.6266 21.8575H35.1379V21.2736H32.6368C32.5821 21.2736 32.5172 21.2378 32.5172 21.1769V20.74H35.1379V20.1669H32.5172V19.8052C32.5172 19.7514 32.5582 19.7085 32.6402 19.7085H35.1345Z" fill="#2A8D3C"/>
</svg>
