<svg width="40" height="40" viewBox="0 0 40 40" fill="none" xmlns="http://www.w3.org/2000/svg">
<rect width="40" height="40" fill="none"/>
<path d="M15.074 16.7915H19.72C20.0072 16.7915 20.2381 16.5561 20.2381 16.2634V11.5281C20.2381 11.2353 20.0072 11 19.72 11H15.074C14.7868 11 14.556 11.2353 14.556 11.5281V16.2634C14.556 16.5561 14.7868 16.7915 15.074 16.7915Z" fill="#9F187D"/>
<path d="M15.074 23.111H19.72C20.0072 23.111 20.2381 22.8756 20.2381 22.5829V17.8476C20.2381 17.5548 20.0072 17.3195 19.72 17.3195H15.074C14.7868 17.3195 14.556 17.5548 14.556 17.8476V22.5829C14.556 22.8756 14.7868 23.111 15.074 23.111Z" fill="#9F187D"/>
<path d="M21.2912 11.0115C25.7233 11.1377 26.444 12.8826 26.444 13.8986C26.444 14.9145 25.7289 16.6594 21.2912 16.7857C21.004 16.7914 20.7563 16.5561 20.7563 16.2576V11.5395C20.7563 11.2468 20.9984 11 21.2912 11.0115Z" fill="#9F187D"/>
<path d="M26.4328 17.8648C26.3032 22.382 24.5969 23.111 23.6002 23.111C22.6034 23.111 20.8914 22.382 20.7675 17.8648C20.7618 17.5721 20.9928 17.3195 21.2856 17.3195H25.9147C26.2019 17.3195 26.4384 17.5663 26.4328 17.8648Z" fill="#9F187D"/>
<path d="M11.6275 27.06C10.9686 27.06 10.6195 27.301 10.6195 27.743V28.9254H10V26.1071H10.6195V26.8074C10.8335 26.3425 11.1883 26.0612 11.6275 26.0612V27.06Z" fill="#9F187D"/>
<path fill-rule="evenodd" clip-rule="evenodd" d="M12.4892 27.7602H14.815C14.8319 27.6971 14.8319 27.6169 14.8319 27.5423C14.8319 26.6756 14.1954 26.0497 13.3395 26.0497C12.4835 26.0497 11.8472 26.6869 11.8472 27.5249C11.8472 28.3629 12.4891 29 13.3451 29C14.0209 29 14.5728 28.6154 14.7812 28.0415H14.0998C13.9759 28.1677 13.6886 28.2596 13.362 28.2596C12.9227 28.2596 12.6018 28.0644 12.4892 27.7602ZM14.2011 27.2781H12.5004C12.613 26.9796 12.934 26.7844 13.3451 26.7844C13.7562 26.7844 14.0941 26.9739 14.2011 27.2781Z" fill="#9F187D"/>
<path d="M15.1304 27.5249C15.1304 26.6869 15.7667 26.0497 16.6227 26.0497C17.3717 26.0497 17.963 26.5434 18.0813 27.2494H17.4111C17.2872 27.0083 16.9831 26.8533 16.6227 26.8533C16.1384 26.8533 15.7723 27.1403 15.7723 27.5249C15.7723 27.9094 16.1384 28.1964 16.6227 28.1964C16.9775 28.1964 17.2816 28.0415 17.4111 27.8004H18.0813C17.963 28.5064 17.3717 29 16.6227 29C15.7723 29 15.1304 28.3629 15.1304 27.5249Z" fill="#9F187D"/>
<path fill-rule="evenodd" clip-rule="evenodd" d="M19.0048 27.7602H21.3306C21.3475 27.6971 21.3475 27.6167 21.3475 27.5421C21.3475 26.6754 20.7112 26.0497 19.8552 26.0497C18.9992 26.0497 18.3629 26.6869 18.3629 27.5249C18.3629 28.3629 19.0048 29 19.8608 29C20.5366 29 21.0885 28.6154 21.2969 28.0415H20.6155C20.4916 28.1677 20.2043 28.2596 19.8777 28.2596C19.4385 28.2596 19.1231 28.0644 19.0048 27.7602ZM20.7225 27.2781H19.0217C19.1344 26.9796 19.4553 26.7844 19.8665 26.7844C20.2776 26.7844 20.6155 26.9739 20.7225 27.2781Z" fill="#9F187D"/>
<path d="M21.6235 25.2978C21.6235 25.0453 21.8375 24.8559 22.1191 24.8559C22.4006 24.8559 22.6259 25.051 22.6259 25.2978C22.6259 25.5446 22.4119 25.7455 22.1191 25.7455C21.8262 25.7455 21.6235 25.5504 21.6235 25.2978Z" fill="#9F187D"/>
<path d="M22.4288 26.1129V28.9311H21.8093V26.1129H22.4288Z" fill="#9F187D"/>
<path d="M24.0056 27.8635V26.905H24.8166V26.1129H24.0113V25.2864L23.3862 25.4643V26.1129H22.8456V26.905H23.3862V28.0529C23.3862 28.6384 23.6959 28.9311 24.2928 28.9311H24.7602V28.139H24.3604C24.1183 28.139 24.0056 28.0529 24.0056 27.8635Z" fill="#9F187D"/>
<path fill-rule="evenodd" clip-rule="evenodd" d="M28.004 28.9311H27.3845V28.3686C27.1762 28.7532 26.8214 29 26.3765 29C25.6163 29 25.0418 28.3629 25.0418 27.5249C25.0418 26.6869 25.6163 26.0497 26.3765 26.0497C26.8271 26.0497 27.1762 26.2908 27.3845 26.6811V26.1186H28.004V28.9311ZM27.3845 27.5249C27.3845 27.1403 27.0185 26.8533 26.5342 26.8533C26.0499 26.8533 25.6895 27.1403 25.6895 27.5249C25.6895 27.9094 26.0443 28.1964 26.5342 28.1964C27.0242 28.1964 27.3845 27.9094 27.3845 27.5249Z" fill="#9F187D"/>
<path d="M29.074 27.9783H28.4602C28.4602 28.5408 28.9952 28.9943 29.7329 28.9943C30.4312 28.9943 31 28.6614 31 28.0587C31 27.5019 30.465 27.2953 29.9413 27.2321C29.4232 27.1748 29.119 27.1001 29.119 26.9681C29.119 26.8361 29.3668 26.75 29.7216 26.75C30.0764 26.75 30.3467 26.8648 30.3467 27.0198H30.9605C30.9605 26.4688 30.4312 26.0383 29.7273 26.0383C29.0684 26.0383 28.5053 26.3482 28.5053 26.9337C28.5053 27.479 29.0064 27.7143 29.5696 27.7832C30.0595 27.8406 30.3918 27.898 30.3918 28.0472C30.3918 28.1907 30.1328 28.2883 29.7442 28.2883C29.3556 28.2883 29.074 28.1563 29.074 27.9783Z" fill="#9F187D"/>
</svg>
