<svg width="40" height="40" viewBox="0 0 40 40" fill="none" xmlns="http://www.w3.org/2000/svg">
<rect width="40" height="40" fill="none"/>
<path d="M7.56797 22.4033L8.12256 21.092H5.56261L5.00802 22.4033H7.56797Z" fill="#ED1846"/>
<path d="M28.9236 21.0507V22.4033L28.9277 22.4075H28.1922C26.6772 22.4075 25.9417 21.7167 25.9417 20.3971V16H27.4247V17.3609H29.1206L28.5499 18.7135H27.4247V20.1655C27.4247 20.7735 27.7019 21.0507 28.3128 21.0507H28.9236Z" fill="#192959"/>
<path fill-rule="evenodd" clip-rule="evenodd" d="M16.1842 19.8759C16.1842 18.395 17.3858 17.2451 18.9089 17.2451C20.4361 17.2451 21.6336 18.395 21.6336 19.8759C21.6336 21.3568 20.4361 22.515 18.9089 22.515C17.3818 22.515 16.1842 21.3568 16.1842 19.8759ZM17.6551 19.88C17.6551 20.6081 18.1815 21.1582 18.9089 21.1582C19.6323 21.1582 20.1628 20.6081 20.1628 19.88C20.1628 19.152 19.6323 18.6101 18.9089 18.6101C18.1855 18.6101 17.6551 19.152 17.6551 19.88Z" fill="#192959"/>
<path d="M9.71802 21.0093V20.8935C9.71802 19.8345 9.04287 19.3671 7.85733 19.243L6.82051 19.1355C6.56732 19.1107 6.4789 19.0362 6.4789 18.8956C6.4789 18.7466 6.58339 18.6639 6.81246 18.6639H8.72942L9.28398 17.3526H6.87675C5.74346 17.3526 5 17.9938 5 18.9369C5 19.88 5.49832 20.3806 6.85264 20.5212L7.80508 20.6205C8.05827 20.6453 8.19492 20.7446 8.19492 20.9638V21.0052H9.70997L9.71802 21.0093Z" fill="#192959"/>
<path d="M23.6872 20.0579V22.4033H22.2043V17.3609H23.6551V18.1303C24.0047 17.5926 24.4869 17.3609 25.2947 17.3609H25.4233V18.7135H25.1701C24.1775 18.7135 23.6872 19.2141 23.6872 20.0579Z" fill="#192959"/>
<path d="M35 17.3609L32.8701 22.4033H31.4354L29.3496 17.3609H31.0938L32.1788 20.3888L33.288 17.3609H35Z" fill="#192959"/>
<path fill-rule="evenodd" clip-rule="evenodd" d="M13.2566 17.2451C12.5222 17.2457 11.9964 17.5888 11.7073 17.9979V17.3568H10.2565V24H11.7395V21.8738C12.073 22.2668 12.6437 22.4902 13.2907 22.4902C14.6531 22.4902 15.6537 21.332 15.6537 19.8842C15.6537 18.4371 14.6099 17.2463 13.2566 17.2451ZM12.925 21.1748C12.2056 21.1748 11.6792 20.6246 11.6792 19.88C11.6792 19.1355 12.2096 18.5936 12.925 18.5936C13.6403 18.5936 14.1869 19.1355 14.1869 19.88C14.1869 20.6246 13.6403 21.1748 12.925 21.1748Z" fill="#192959"/>
<path d="M13.2566 17.2451H13.2585H13.2545H13.2566Z" fill="#192959"/>
</svg>
