<svg width="40" height="40" viewBox="0 0 40 40" fill="none" xmlns="http://www.w3.org/2000/svg">
<rect width="40" height="40" fill="none"/>
<path d="M27.0878 19.0968H30.7637C30.8692 19.0968 30.9578 19.009 30.9578 18.9044V17.9845C30.9578 17.8799 30.8692 17.7963 30.7637 17.7963H28.3623V16.6673H30.2994C30.4049 16.6673 30.4893 16.5836 30.4893 16.4749V15.555C30.4893 15.4504 30.4049 15.3626 30.2994 15.3626H28.3623V14.3047H30.7257C30.8312 14.3047 30.9156 14.221 30.9156 14.1123V13.1924C30.9156 13.0878 30.8312 13 30.7257 13H27.0836C26.9781 13 26.8895 13.0836 26.8895 13.1924V18.9086C26.8895 19.0257 26.9654 19.101 27.0836 19.101M21.9138 19.1051H25.3364C25.4419 19.1051 25.5305 19.0173 25.5305 18.9128V17.9134C25.5305 17.8088 25.4419 17.721 25.3364 17.721H23.2474V13.1924C23.2474 13.0878 23.163 13 23.0533 13H21.9138C21.8083 13 21.7196 13.0836 21.7196 13.1924V18.9086C21.7196 19.0257 21.7998 19.101 21.9138 19.101M16.2291 19.1051H19.9218C20.0273 19.1051 20.116 19.0173 20.116 18.9128V17.9928C20.116 17.8883 20.0273 17.8005 19.9218 17.8005H17.5036V16.6714H19.4576C19.5631 16.6714 19.6475 16.5878 19.6475 16.4791V15.5591C19.6475 15.4546 19.5631 15.3668 19.4576 15.3668H17.5036V14.3088H19.8838C19.9893 14.3088 20.0738 14.2252 20.0738 14.1165V13.1965C20.0738 13.092 19.9893 13.0042 19.8838 13.0042H16.2249C16.1194 13.0042 16.0308 13.0878 16.0308 13.1965V18.9128C16.0308 19.0299 16.1067 19.1051 16.2249 19.1051M11.7008 19.1135H12.8444C12.95 19.1135 13.0386 19.0257 13.0386 18.9211V14.3757H14.3553C14.4608 14.3757 14.5494 14.2921 14.5494 14.1834V13.2049C14.5494 13.1004 14.465 13.0125 14.3553 13.0125H10.1941C10.0886 13.0125 10 13.0962 10 13.2049V14.1834C10 14.2879 10.0886 14.3757 10.1941 14.3757H11.5108V18.9211C11.5108 19.0382 11.591 19.1135 11.705 19.1135H11.7008Z" fill="#010066"/>
<path d="M15.5328 26.0759C15.0137 26.5735 14.1991 26.9958 13.3087 26.9958V27C11.4898 27 10.1941 25.6577 10.1941 23.8554C10.1941 22.0532 11.6206 20.7109 13.3467 20.7109C14.157 20.7109 14.9124 21.0747 15.4357 21.5723C15.5539 21.6852 15.5328 21.7814 15.4357 21.8775L14.8153 22.509C14.7182 22.6093 14.6423 22.6093 14.5452 22.5299C14.1443 22.2037 13.794 22.0866 13.3678 22.0866C12.4393 22.0866 11.7008 22.7431 11.7008 23.8345C11.7008 24.9259 12.4182 25.6159 13.3678 25.6159C13.832 25.6159 14.2203 25.4653 14.6254 25.1392C14.7225 25.0388 14.8153 25.0388 14.8955 25.1183L15.5328 25.7706C15.672 25.8835 15.6298 25.9797 15.5328 26.0759Z" fill="#FB0034"/>
<path d="M20.1413 26.8996H21.209C21.3145 26.8996 21.4031 26.8118 21.4031 26.7073V23.6589L24.6358 26.7826C24.7329 26.8787 24.8089 26.8996 24.927 26.8996H25.1592C25.2773 26.8996 25.3533 26.8202 25.3533 26.7073V20.991C25.3533 20.8865 25.2647 20.8029 25.1592 20.8029H24.0914C23.9859 20.8029 23.9015 20.8865 23.9015 20.991V24.0603L20.7448 20.9158C20.6477 20.8196 20.5717 20.7987 20.4536 20.7987H20.1455C20.0273 20.7987 19.9514 20.874 19.9514 20.9869V26.7031C19.9514 26.8369 20.0316 26.8955 20.1455 26.8955L20.1413 26.8996Z" fill="#FB0034"/>
<path d="M27.13 26.8996H30.8059C30.9114 26.8996 31 26.8118 31 26.7073V25.7873C31 25.6828 30.9114 25.595 30.8059 25.595H28.4045V24.466H30.3416C30.4471 24.466 30.5358 24.3781 30.5358 24.2736V23.3536C30.5358 23.2491 30.4471 23.1613 30.3416 23.1613H28.4045V22.1075H30.7679C30.8734 22.1075 30.962 22.0197 30.962 21.9152V20.9952C30.962 20.8907 30.8734 20.8029 30.7679 20.8029H27.13C27.0245 20.8029 26.9359 20.8907 26.9359 20.9952V26.7115C26.9359 26.8286 27.0119 26.8996 27.13 26.8996Z" fill="#FB0034"/>
<path d="M18.1859 20.8029C18.1728 20.8001 18.1591 20.7987 18.1451 20.7987H17.0056C17.004 20.7987 17.0024 20.7987 17.0008 20.7988L16.997 20.7989C16.9862 20.7994 16.9755 20.8007 16.9652 20.8029H16.8115V26.9038H18.3392V20.8029H18.1859Z" fill="#FB0034"/>
</svg>
