<svg width="40" height="40" viewBox="0 0 40 40" fill="none" xmlns="http://www.w3.org/2000/svg">
<rect width="40" height="40" fill="none"/>
<path d="M18.7933 22.2524C18.5088 22.12 18.3126 22.2524 18.3126 22.5782V28.6781C18.3126 29.004 18.5088 29.1364 18.7933 29.004L19.1661 28.8309C19.4016 28.7189 19.5095 28.5559 19.5095 28.2912V22.9652C19.5095 22.7004 19.4016 22.5375 19.1661 22.4255L18.7933 22.2524ZM27.6913 24.1567C27.2204 24.1567 26.7593 24.3705 26.4552 24.6964V22.5375C26.4552 22.3847 26.3669 22.2931 26.2198 22.2931H25.4938C25.3467 22.2931 25.2583 22.3847 25.2583 22.5375V28.7189C25.2583 28.8716 25.3467 28.9633 25.4938 28.9633H26.1511C26.2982 28.9633 26.3865 28.8716 26.3865 28.7189V28.4541C26.671 28.7902 27.2008 29.0447 27.7207 29.0447C28.8685 29.0447 29.8594 27.9653 29.8594 26.6007C29.8594 25.2158 28.8587 24.1567 27.6913 24.1567ZM8.23741 27.894C8.17855 27.7515 8.07063 27.7107 7.92348 27.782C7.82537 27.8329 7.71746 27.8635 7.5605 27.8736C7.24656 27.8736 7.06998 27.6496 7.06998 27.2728V25.3379H8.00197C8.14912 25.3379 8.23741 25.2463 8.23741 25.0936V24.4825C8.23741 24.3298 8.14912 24.2381 8.00197 24.2381H7.06998V23.0772C7.06998 22.9245 6.98169 22.8328 6.83454 22.8328H6.10857C5.96141 22.8328 5.87312 22.9245 5.87312 23.0772V24.2381H5.23544C5.08829 24.2381 5 24.3298 5 24.4825V25.0936C5 25.2463 5.08829 25.3379 5.23544 25.3379H5.87312V27.3136C5.87312 28.4032 6.4225 29.0447 7.31524 29.0447C7.72727 29.0447 8.07063 28.9327 8.38456 28.7189C8.5023 28.6374 8.52191 28.5356 8.46304 28.393L8.23741 27.894ZM16.8018 24.2381C16.6547 24.2381 16.5664 24.3298 16.5664 24.4825V24.7473C16.3015 24.4113 15.811 24.1567 15.3205 24.1567C14.1236 24.1567 13.0935 25.2158 13.0935 26.6007C13.0935 27.9856 14.0648 28.9429 15.291 28.9429C15.8404 28.9429 16.2622 28.6781 16.5075 28.4032C16.4977 29.3706 16.0072 29.8085 15.1635 29.8085C14.7122 29.8085 14.2904 29.6659 13.7999 29.3401C13.6723 29.2484 13.5252 29.279 13.4565 29.4216L13.1622 30.0224C13.0935 30.1649 13.1132 30.2973 13.2505 30.389C13.8587 30.7963 14.5749 31 15.193 31C16.8116 31 17.7044 30.0937 17.7044 28.006V24.4825C17.7044 24.3298 17.6161 24.2381 17.4689 24.2381H16.8018ZM22.3839 24.1567C21.1184 24.1567 20.0588 25.1852 20.0588 26.6007C20.0588 28.0162 21.0988 29.0447 22.3839 29.0447C23.6494 29.0447 24.709 28.0162 24.709 26.6007C24.709 25.1852 23.6691 24.1567 22.3839 24.1567ZM32.675 24.1567C31.4094 24.1567 30.3499 25.1852 30.3499 26.6007C30.3499 28.0162 31.3898 29.0447 32.675 29.0447C33.9405 29.0447 35 28.0162 35 26.6007C35 25.1852 33.9601 24.1567 32.675 24.1567ZM12.0831 24.2381C11.9359 24.2381 11.8672 24.3094 11.8182 24.4418L10.8567 27.283L9.92478 24.452C9.88554 24.3196 9.80705 24.2381 9.65991 24.2381H8.75736C8.58076 24.2381 8.53173 24.3705 8.60039 24.5335L10.2387 28.7698C10.2878 28.892 10.3859 28.9633 10.5134 28.9633H11.2001C11.3277 28.9633 11.4258 28.892 11.4748 28.7698L13.1132 24.5335C13.1818 24.3705 13.1328 24.2381 12.9562 24.2381H12.0831ZM15.399 27.8431C14.7809 27.8431 14.2609 27.3339 14.2609 26.5905C14.2609 25.8369 14.7809 25.3379 15.399 25.3379C16.017 25.3379 16.5271 25.8369 16.5271 26.5905C16.5271 27.3339 16.017 27.8431 15.399 27.8431ZM22.3839 27.8533C21.7561 27.8533 21.2459 27.3237 21.2459 26.6007C21.2459 25.8777 21.7561 25.3481 22.3839 25.3481C23.0118 25.3481 23.5219 25.8777 23.5219 26.6007C23.5219 27.3237 23.0118 27.8533 22.3839 27.8533ZM27.554 27.8533C26.9457 27.8533 26.4356 27.3543 26.4356 26.6007C26.4356 25.8573 26.9457 25.3481 27.554 25.3481C28.1622 25.3481 28.6723 25.8573 28.6723 26.6007C28.6723 27.3543 28.1622 27.8533 27.554 27.8533ZM32.675 27.8533C32.0471 27.8533 31.537 27.3237 31.537 26.6007C31.537 25.8777 32.0471 25.3481 32.675 25.3481C33.3028 25.3481 33.813 25.8777 33.813 26.6007C33.813 27.3237 33.3028 27.8533 32.675 27.8533Z" fill="#185CFB"/>
<path d="M23.416 17.8418C22.1528 17.9862 20.7854 18.0223 19.4643 18.0223C18.1431 18.0223 16.7756 17.9862 15.5009 17.8418C15.1416 17.8057 14.9562 17.7095 14.9098 17.3125C14.8403 16.5546 14.8403 15.7847 14.8403 15.0028C14.8403 14.2329 14.8403 13.463 14.9098 12.7051C14.9562 12.3081 15.1416 12.2119 15.5009 12.1758C16.7756 12.0315 18.1431 11.9954 19.4642 11.9954C20.7853 11.9954 22.1528 12.0315 23.416 12.1758C23.7869 12.2119 23.9723 12.3081 24.0186 12.7051C24.0766 13.463 24.0766 14.2329 24.0766 15.0028C24.0766 15.7847 24.0766 16.5546 24.0186 17.3125C23.9723 17.7095 23.7869 17.8057 23.416 17.8418ZM19.4643 9C16.2773 9 13.6814 11.6946 13.6814 15.0028C13.6814 18.323 16.2773 21.0176 19.4643 21.0176C22.6512 21.0176 25.2586 18.323 25.2586 15.0028C25.2586 11.6946 22.6512 9 19.4643 9Z" fill="#185CFB"/>
<path d="M17.1233 15.0029C17.1233 13.6796 18.1431 12.5729 19.4642 12.5729C20.7854 12.5729 21.8052 13.6796 21.8052 15.0029C21.8052 16.3382 20.7854 17.4449 19.4642 17.4449C18.1431 17.4449 17.1233 16.3382 17.1233 15.0029Z" fill="#185CFB"/>
</svg>
