<svg width="40" height="40" viewBox="0 0 40 40" fill="none" xmlns="http://www.w3.org/2000/svg">
<rect width="40" height="40" fill="none"/>
<path d="M13.3221 17.9672L14.4077 17.9418C15.3993 15.3544 17.6683 13.6223 20.4692 13.6223C23.2702 13.6223 25.8866 15.5546 26.8528 18.182H27.2039C26.2521 15.1834 23.4982 13 20.2268 13C16.9554 13 14.3353 15.0706 13.3221 17.9672Z" fill="url(#paint0_radial_5311_29241)"/>
<path d="M25.1701 19.7994C25.1711 20.4096 25.6773 20.7112 26.339 20.8894C26.7515 21.0022 26.8528 21.0713 26.8528 21.2242C26.8528 21.377 26.7298 21.4571 26.5018 21.4571C26.1436 21.4571 25.807 21.3115 25.503 21.0422L25.029 21.6718C25.4017 22.0539 25.9264 22.2431 26.4729 22.2431C27.222 22.2431 27.7214 21.8282 27.7214 21.1441C27.7214 20.5 27.2835 20.2453 26.5742 20.0633C26.1436 19.9505 26.035 19.8413 26.035 19.7213C26.035 19.5939 26.1363 19.5066 26.3462 19.5066C26.6176 19.5066 26.9252 19.6266 27.2111 19.8486L27.6345 19.1972C27.298 18.8952 26.8927 18.7205 26.3715 18.7205C25.6304 18.7205 25.171 19.1563 25.1701 19.7994Z" fill="url(#paint1_radial_5311_29241)"/>
<path d="M18.9566 18.7242V22.1849H21.4536V21.3734H19.8396V20.8166H21.2835V20.0597H19.8396V19.5357H21.4319V18.7242H18.9566Z" fill="url(#paint2_radial_5311_29241)"/>
<path fill-rule="evenodd" clip-rule="evenodd" d="M22.0145 18.7242V22.1849H22.8794V21.1259H23.3173L23.8637 22.1849H24.8625L24.1279 20.9767C24.5115 20.7948 24.7612 20.4527 24.7612 19.9178C24.7612 19.1681 24.2473 18.7242 23.4512 18.7242H22.0145ZM22.883 19.5284H23.4294C23.7262 19.5284 23.9035 19.6812 23.9035 19.9578C23.9035 20.2052 23.7334 20.3726 23.4294 20.3726H22.883V19.5284Z" fill="url(#paint3_radial_5311_29241)"/>
<path d="M31.684 22.1849V18.9316L32.5416 18.9716V21.4061L34 21.4207V22.1849H31.684Z" fill="url(#paint4_radial_5311_29241)"/>
<path fill-rule="evenodd" clip-rule="evenodd" d="M28.7563 22.1849H27.8625L29.1797 18.8261L30.0085 18.8515L31.3185 22.1849H30.3993L30.1713 21.5881H28.9843L28.7563 22.1849ZM29.585 19.925L29.234 20.8639L29.9288 20.8712L29.585 19.925Z" fill="url(#paint5_radial_5311_29241)"/>
<path d="M14.0169 18.786V22.1849H14.889V18.7715C14.5995 18.7788 14.3028 18.786 14.0169 18.786Z" fill="url(#paint6_radial_5311_29241)"/>
<path d="M16.9771 20.9221L17.6393 18.7314L17.6429 18.7351C17.7977 18.7351 17.9533 18.7333 18.1098 18.7315C18.268 18.7296 18.4274 18.7278 18.5875 18.7278L17.3679 22.1885H16.5392L15.2835 18.7678L16.2352 18.7496L16.9771 20.9221Z" fill="url(#paint7_radial_5311_29241)"/>
<path d="M9.00844 18.9461V20.7693C9.00844 21.2242 8.78408 21.4389 8.44029 21.4389C8.09651 21.4389 7.87214 21.2314 7.87214 20.7693V18.9935C7.58263 19.0116 7.28589 19.0262 7 19.0335V20.7984C7 21.7846 7.55368 22.2395 8.43667 22.2395C9.31966 22.2395 9.88058 21.7773 9.88058 20.7256V18.9098L9.01568 18.9425L9.00844 18.9461Z" fill="url(#paint8_radial_5311_29241)"/>
<path d="M12.5259 20.6019V18.8261L12.5296 18.8297L13.38 18.8042V22.1849H12.6236L11.3028 20.3617V22.1849H10.4596V18.8916L11.2557 18.8661L12.5259 20.6019Z" fill="url(#paint9_radial_5311_29241)"/>
<path d="M20.2051 28C17.006 28 14.3136 25.9731 13.3764 23.0509H14.0495C14.9867 25.6929 17.2666 27.5633 20.4331 27.5633C22.6333 27.5633 24.421 26.6172 25.6369 25.1288H26.0278C24.7395 26.9083 22.6405 28 20.2051 28Z" fill="url(#paint10_radial_5311_29241)"/>
<path d="M27.2437 22.8945L26.7769 24.1099L26.31 22.8945H26.0133L26.6538 24.4956H26.8963L27.544 22.8945H27.2437Z" fill="url(#paint11_radial_5311_29241)"/>
<path d="M24.4717 23.1565V22.8945H25.7274V23.1565H25.2352V24.4956H24.9638V23.1565H24.4717Z" fill="url(#paint12_radial_5311_29241)"/>
<defs>
<radialGradient id="paint0_radial_5311_29241" cx="0" cy="0" r="1" gradientUnits="userSpaceOnUse" gradientTransform="translate(13.7392 12.952) scale(18.9881 19.361)">
<stop stop-color="#ED7334"/>
<stop offset="0.1" stop-color="#ED7334"/>
<stop offset="0.25" stop-color="#EB684A"/>
<stop offset="0.35" stop-color="#EA6359"/>
<stop offset="0.65" stop-color="#E62C56"/>
<stop offset="0.84" stop-color="#E52951"/>
<stop offset="1" stop-color="#E32449"/>
</radialGradient>
<radialGradient id="paint1_radial_5311_29241" cx="0" cy="0" r="1" gradientUnits="userSpaceOnUse" gradientTransform="translate(13.7392 12.952) scale(18.9881 19.361)">
<stop stop-color="#ED7334"/>
<stop offset="0.1" stop-color="#ED7334"/>
<stop offset="0.25" stop-color="#EB684A"/>
<stop offset="0.35" stop-color="#EA6359"/>
<stop offset="0.65" stop-color="#E62C56"/>
<stop offset="0.84" stop-color="#E52951"/>
<stop offset="1" stop-color="#E32449"/>
</radialGradient>
<radialGradient id="paint2_radial_5311_29241" cx="0" cy="0" r="1" gradientUnits="userSpaceOnUse" gradientTransform="translate(13.7392 12.952) scale(18.9881 19.361)">
<stop stop-color="#ED7334"/>
<stop offset="0.1" stop-color="#ED7334"/>
<stop offset="0.25" stop-color="#EB684A"/>
<stop offset="0.35" stop-color="#EA6359"/>
<stop offset="0.65" stop-color="#E62C56"/>
<stop offset="0.84" stop-color="#E52951"/>
<stop offset="1" stop-color="#E32449"/>
</radialGradient>
<radialGradient id="paint3_radial_5311_29241" cx="0" cy="0" r="1" gradientUnits="userSpaceOnUse" gradientTransform="translate(13.7392 12.952) scale(18.9881 19.361)">
<stop stop-color="#ED7334"/>
<stop offset="0.1" stop-color="#ED7334"/>
<stop offset="0.25" stop-color="#EB684A"/>
<stop offset="0.35" stop-color="#EA6359"/>
<stop offset="0.65" stop-color="#E62C56"/>
<stop offset="0.84" stop-color="#E52951"/>
<stop offset="1" stop-color="#E32449"/>
</radialGradient>
<radialGradient id="paint4_radial_5311_29241" cx="0" cy="0" r="1" gradientUnits="userSpaceOnUse" gradientTransform="translate(13.7392 12.952) scale(18.9881 19.361)">
<stop stop-color="#ED7334"/>
<stop offset="0.1" stop-color="#ED7334"/>
<stop offset="0.25" stop-color="#EB684A"/>
<stop offset="0.35" stop-color="#EA6359"/>
<stop offset="0.65" stop-color="#E62C56"/>
<stop offset="0.84" stop-color="#E52951"/>
<stop offset="1" stop-color="#E32449"/>
</radialGradient>
<radialGradient id="paint5_radial_5311_29241" cx="0" cy="0" r="1" gradientUnits="userSpaceOnUse" gradientTransform="translate(13.7392 12.952) scale(18.9881 19.361)">
<stop stop-color="#ED7334"/>
<stop offset="0.1" stop-color="#ED7334"/>
<stop offset="0.25" stop-color="#EB684A"/>
<stop offset="0.35" stop-color="#EA6359"/>
<stop offset="0.65" stop-color="#E62C56"/>
<stop offset="0.84" stop-color="#E52951"/>
<stop offset="1" stop-color="#E32449"/>
</radialGradient>
<radialGradient id="paint6_radial_5311_29241" cx="0" cy="0" r="1" gradientUnits="userSpaceOnUse" gradientTransform="translate(13.7392 12.952) scale(18.9881 19.361)">
<stop stop-color="#ED7334"/>
<stop offset="0.1" stop-color="#ED7334"/>
<stop offset="0.25" stop-color="#EB684A"/>
<stop offset="0.35" stop-color="#EA6359"/>
<stop offset="0.65" stop-color="#E62C56"/>
<stop offset="0.84" stop-color="#E52951"/>
<stop offset="1" stop-color="#E32449"/>
</radialGradient>
<radialGradient id="paint7_radial_5311_29241" cx="0" cy="0" r="1" gradientUnits="userSpaceOnUse" gradientTransform="translate(13.7392 12.952) scale(18.9881 19.361)">
<stop stop-color="#ED7334"/>
<stop offset="0.1" stop-color="#ED7334"/>
<stop offset="0.25" stop-color="#EB684A"/>
<stop offset="0.35" stop-color="#EA6359"/>
<stop offset="0.65" stop-color="#E62C56"/>
<stop offset="0.84" stop-color="#E52951"/>
<stop offset="1" stop-color="#E32449"/>
</radialGradient>
<radialGradient id="paint8_radial_5311_29241" cx="0" cy="0" r="1" gradientUnits="userSpaceOnUse" gradientTransform="translate(13.7392 12.952) scale(18.9881 19.361)">
<stop stop-color="#ED7334"/>
<stop offset="0.1" stop-color="#ED7334"/>
<stop offset="0.25" stop-color="#EB684A"/>
<stop offset="0.35" stop-color="#EA6359"/>
<stop offset="0.65" stop-color="#E62C56"/>
<stop offset="0.84" stop-color="#E52951"/>
<stop offset="1" stop-color="#E32449"/>
</radialGradient>
<radialGradient id="paint9_radial_5311_29241" cx="0" cy="0" r="1" gradientUnits="userSpaceOnUse" gradientTransform="translate(13.7392 12.952) scale(18.9881 19.361)">
<stop stop-color="#ED7334"/>
<stop offset="0.1" stop-color="#ED7334"/>
<stop offset="0.25" stop-color="#EB684A"/>
<stop offset="0.35" stop-color="#EA6359"/>
<stop offset="0.65" stop-color="#E62C56"/>
<stop offset="0.84" stop-color="#E52951"/>
<stop offset="1" stop-color="#E32449"/>
</radialGradient>
<radialGradient id="paint10_radial_5311_29241" cx="0" cy="0" r="1" gradientUnits="userSpaceOnUse" gradientTransform="translate(13.7392 12.952) scale(18.9881 19.361)">
<stop stop-color="#ED7334"/>
<stop offset="0.1" stop-color="#ED7334"/>
<stop offset="0.25" stop-color="#EB684A"/>
<stop offset="0.35" stop-color="#EA6359"/>
<stop offset="0.65" stop-color="#E62C56"/>
<stop offset="0.84" stop-color="#E52951"/>
<stop offset="1" stop-color="#E32449"/>
</radialGradient>
<radialGradient id="paint11_radial_5311_29241" cx="0" cy="0" r="1" gradientUnits="userSpaceOnUse" gradientTransform="translate(13.7392 12.952) scale(18.9881 19.361)">
<stop stop-color="#ED7334"/>
<stop offset="0.1" stop-color="#ED7334"/>
<stop offset="0.25" stop-color="#EB684A"/>
<stop offset="0.35" stop-color="#EA6359"/>
<stop offset="0.65" stop-color="#E62C56"/>
<stop offset="0.84" stop-color="#E52951"/>
<stop offset="1" stop-color="#E32449"/>
</radialGradient>
<radialGradient id="paint12_radial_5311_29241" cx="0" cy="0" r="1" gradientUnits="userSpaceOnUse" gradientTransform="translate(13.7392 12.952) scale(18.9881 19.361)">
<stop stop-color="#ED7334"/>
<stop offset="0.1" stop-color="#ED7334"/>
<stop offset="0.25" stop-color="#EB684A"/>
<stop offset="0.35" stop-color="#EA6359"/>
<stop offset="0.65" stop-color="#E62C56"/>
<stop offset="0.84" stop-color="#E52951"/>
<stop offset="1" stop-color="#E32449"/>
</radialGradient>
</defs>
</svg>
