<svg width="40" height="40" viewBox="0 0 40 40" fill="none" xmlns="http://www.w3.org/2000/svg">
<rect width="40" height="40" fill="none"/>
<path d="M15.3136 17.1522L13.5093 26.9782C13.4651 27.2104 13.2484 27.4337 13.0185 27.4963L11.3027 27.9786C11.0639 28.0456 10.8339 27.9518 10.7897 27.7419L9.00755 18.9254C8.96333 18.7288 9.11811 18.5279 9.34807 18.4609L10.5067 18.1348C10.6791 18.0857 10.8118 18.2108 10.8472 18.5234L12.1694 25.3078L13.4474 17.6212C13.4917 17.4024 13.5668 17.2773 13.7968 17.2103L14.9642 16.8798C15.1942 16.8173 15.3578 16.9289 15.3136 17.1478" fill="#752EE2"/>
<path d="M16.1981 16.9334C16.1981 16.7145 16.3528 16.5001 16.5563 16.4421L17.5601 16.1607C17.7458 16.1071 17.9095 16.2366 17.9095 16.4555V25.7633C17.9095 25.9688 17.7458 26.201 17.5601 26.2546L16.5563 26.536C16.3484 26.5941 16.1981 26.4556 16.1981 26.2457V16.9334Z" fill="#752EE2"/>
<path d="M25.1 14.392L23.2957 24.218C23.2515 24.4502 23.0348 24.6735 22.8048 24.7361L21.089 25.2184C20.8502 25.2854 20.6202 25.1916 20.576 24.9817L18.7939 16.1652C18.7497 15.9687 18.9044 15.7677 19.1344 15.7007L20.293 15.3746C20.4655 15.3255 20.5981 15.4506 20.6335 15.7632L21.9557 22.5476L23.2338 14.861C23.278 14.6422 23.3532 14.5171 23.5831 14.4501L24.7506 14.1196C24.9805 14.0571 25.1442 14.1687 25.1 14.3876" fill="#752EE2"/>
<path d="M30.6498 22.5386L29.4912 22.8647C29.2834 22.9227 29.1639 22.8558 29.1418 22.6503L28.7925 21.1049L27.1121 21.5784C26.9529 21.623 26.829 21.7615 26.7981 21.9357L26.5504 23.3828C26.5062 23.6016 26.431 23.7267 26.2011 23.7937L25.0425 24.1197C24.8037 24.1867 24.64 24.0706 24.6798 23.8517L26.4841 14.0258C26.5283 13.7936 26.745 13.5702 26.975 13.5077L28.6996 13.0209C28.9384 12.9539 29.1595 13.0521 29.2038 13.2576L30.9947 22.0697C31.0301 22.2662 30.8842 22.4672 30.6454 22.5386H30.6498ZM27.2934 20.1L28.7129 20.6137L27.8329 15.0709L27.1076 19.765C27.0855 19.908 27.1651 20.0509 27.2978 20.1H27.2934Z" fill="#752EE2"/>
</svg>
