<svg width="30" height="32" viewBox="0 0 30 32" fill="none" xmlns="http://www.w3.org/2000/svg">
<path fill-rule="evenodd" clip-rule="evenodd" d="M27.8826 0.101915L21.7434 3.70712C21.3963 3.87574 21.1767 4.22735 21.1767 4.61345V7.31232C21.1767 8.05578 21.9381 8.56068 22.6084 8.2359L24.4947 7.1255V22.9489C24.4947 23.5056 24.9463 23.9568 25.5035 23.9568H28.3247C28.8818 23.9568 29.3335 23.5056 29.3335 23.0936V1.15196C29.3335 0.26287 28.5529 -0.224786 27.8826 0.101915ZM4.73431 14.7931C4.73431 17.6941 6.84206 19.6811 9.34778 19.6811C11.8535 19.6811 13.9219 17.6941 13.9219 14.7931C13.9219 11.8518 11.8535 9.905 9.34778 9.905C6.84206 9.905 4.73431 11.8527 4.73431 14.7931ZM14.0811 6.56709C14.0811 5.97118 14.4388 5.61382 15.0353 5.61382H17.7405C18.3369 5.61382 18.6946 5.97118 18.6946 6.56709V20.3163C18.6946 28.4627 15.0756 31.9999 8.51254 31.9999C6.00682 31.9999 3.10314 31.2047 0.636739 29.6153C0.0805512 29.2579 0.000959286 28.7415 0.279053 28.1849L1.47198 25.8405C1.75103 25.2839 2.34749 25.1651 2.86437 25.5224C4.85226 26.7938 6.56301 27.3504 8.39268 27.3504C11.8132 27.3504 13.8021 25.6412 13.8414 21.8665C12.847 22.9395 11.1372 23.9723 8.90955 23.9723C3.93742 23.9723 0 20.2368 0 14.8323C0 9.42788 4.17716 5.29478 9.02941 5.29478C11.0183 5.29478 13.0071 6.2883 14.0811 7.59989V6.56709Z" fill="#C4170C"/>
</svg>
