<svg width="45" height="32" viewBox="0 0 45 32" fill="none" xmlns="http://www.w3.org/2000/svg">
<mask id="mask0_1508_35086" style="mask-type:luminance" maskUnits="userSpaceOnUse" x="23" y="0" width="22" height="23">
<path fill-rule="evenodd" clip-rule="evenodd" d="M23.1514 0H44.7708V22.456H23.1514V0Z" fill="white"/>
</mask>
<g mask="url(#mask0_1508_35086)">
<path fill-rule="evenodd" clip-rule="evenodd" d="M28.9541 8.60813C29.5624 6.40933 31.4343 4.81867 34.0548 4.81867C36.2074 4.81867 38.0792 6.17537 38.6875 8.60813H28.9541ZM33.9148 0C28.0186 0 23.1519 4.86544 23.1519 11.228C23.1519 17.7309 28.0186 22.4561 34.2423 22.4561C39.2495 22.4561 42.9931 20.2573 44.3033 16.2807C44.5374 15.5789 44.2098 15.0643 43.4142 15.0643H39.8578C39.2495 15.0643 38.8751 15.2982 38.5008 15.8128C37.6116 16.9824 36.3013 17.4971 34.4763 17.4971C31.6219 17.4971 29.4692 15.6725 28.9077 12.9123H43.6483C44.3502 12.9123 44.7713 12.4912 44.7713 11.7894V11.7426C44.7713 5.19301 40.7001 0 33.9148 0Z" fill="#06AA48"/>
</g>
<mask id="mask1_1508_35086" style="mask-type:luminance" maskUnits="userSpaceOnUse" x="0" y="0" width="22" height="32">
<path fill-rule="evenodd" clip-rule="evenodd" d="M0 0H21.9938V31.4384H0V0Z" fill="white"/>
</mask>
<g mask="url(#mask1_1508_35086)">
<path fill-rule="evenodd" clip-rule="evenodd" d="M10.997 16.9356C8.04883 16.9356 5.56867 14.5965 5.56867 11.1813C5.56867 7.71929 8.04883 5.42689 10.997 5.42689C13.9451 5.42689 16.3785 7.71929 16.3785 11.1813C16.3785 14.5965 13.9451 16.9356 10.997 16.9356ZM20.8708 0.374246H17.6887C16.9867 0.374246 16.5656 0.795333 16.5656 1.49706V2.71349C15.3021 1.16958 12.9623 0 10.6226 0C4.91355 0 0 4.86544 0 11.228C0 17.5905 4.63275 21.9882 10.4822 21.9882C13.1027 21.9882 15.1149 20.7719 16.2849 19.5087C16.238 23.9531 13.8983 25.9648 9.87379 25.9648C7.7212 25.9648 5.70901 25.3099 3.36924 23.8127C2.76096 23.3917 2.05896 23.532 1.7314 24.1871L0.327489 26.9473C0 27.6022 0.0935451 28.2104 0.748685 28.6315C3.64996 30.5028 7.06606 31.4384 10.0142 31.4384C17.7355 31.4384 21.9938 27.2748 21.9938 17.6841V1.49706C21.9938 0.795333 21.5727 0.374246 20.8708 0.374246Z" fill="#06AA48"/>
</g>
</svg>
